<svg width="20" height="20" viewBox="0 0 20 20" fill="none" xmlns="http://www.w3.org/2000/svg">
<circle cx="10" cy="10" r="10" fill="#E8F3FF"/>
<path d="M10 16C8.33333 16 6.91667 15.4167 5.75 14.25C4.58333 13.0833 4 11.6667 4 10C4 8.33333 4.58333 6.91667 5.75 5.75C6.91667 4.58333 8.33333 4 10 4C10.1556 4 10.3084 4.00556 10.4587 4.01667C10.6084 4.02778 10.7556 4.04444 10.9 4.06667C10.4444 4.38889 10.0807 4.80822 9.80867 5.32467C9.53622 5.84156 9.4 6.4 9.4 7C9.4 8 9.75 8.85 10.45 9.55C11.15 10.25 12 10.6 13 10.6C13.6111 10.6 14.1722 10.4638 14.6833 10.1913C15.1944 9.91933 15.6111 9.55556 15.9333 9.1C15.9556 9.24444 15.9722 9.39156 15.9833 9.54133C15.9944 9.69156 16 9.84444 16 10C16 11.6667 15.4167 13.0833 14.25 14.25C13.0833 15.4167 11.6667 16 10 16Z" fill="#4EA7FF"/>
</svg>
