<svg width="395" height="53" viewBox="0 0 395 53" fill="none" xmlns="http://www.w3.org/2000/svg">
<path d="M264.44 42.2998C263.16 42.2998 261.94 42.0998 260.78 41.6998C259.62 41.2998 258.61 40.7398 257.75 40.0198C256.89 39.2998 256.26 38.4698 255.86 37.5298C255.66 37.1098 255.66 36.7198 255.86 36.3598C256.08 35.9998 256.44 35.7698 256.94 35.6698C257.3 35.5898 257.65 35.6498 257.99 35.8498C258.35 36.0298 258.62 36.3098 258.8 36.6898C259.04 37.1898 259.43 37.6498 259.97 38.0698C260.53 38.4898 261.2 38.8298 261.98 39.0898C262.76 39.3498 263.58 39.4798 264.44 39.4798C265.4 39.4798 266.28 39.3298 267.08 39.0298C267.9 38.7298 268.56 38.2998 269.06 37.7398C269.56 37.1598 269.81 36.4498 269.81 35.6098C269.81 34.5498 269.39 33.5998 268.55 32.7598C267.73 31.9198 266.37 31.3998 264.47 31.1998C261.99 30.9598 260.04 30.2298 258.62 29.0098C257.2 27.7898 256.49 26.2798 256.49 24.4798C256.49 23.1598 256.86 22.0398 257.6 21.1198C258.34 20.1998 259.34 19.4998 260.6 19.0198C261.88 18.5398 263.3 18.2998 264.86 18.2998C266.08 18.2998 267.14 18.4698 268.04 18.8098C268.96 19.1498 269.76 19.6198 270.44 20.2198C271.12 20.8198 271.71 21.5298 272.21 22.3498C272.49 22.7898 272.6 23.2098 272.54 23.6098C272.5 23.9898 272.31 24.2898 271.97 24.5098C271.59 24.7498 271.18 24.7998 270.74 24.6598C270.3 24.5198 269.97 24.2598 269.75 23.8798C269.43 23.2998 269.04 22.8098 268.58 22.4098C268.12 22.0098 267.58 21.6998 266.96 21.4798C266.34 21.2398 265.61 21.1198 264.77 21.1198C263.29 21.0998 262.05 21.3798 261.05 21.9598C260.05 22.5198 259.55 23.3898 259.55 24.5698C259.55 25.1698 259.7 25.7498 260 26.3098C260.32 26.8498 260.89 27.3198 261.71 27.7198C262.55 28.1198 263.75 28.3998 265.31 28.5598C267.69 28.7998 269.54 29.5298 270.86 30.7498C272.2 31.9498 272.87 33.5398 272.87 35.5198C272.87 36.6598 272.63 37.6498 272.15 38.4898C271.69 39.3298 271.06 40.0398 270.26 40.6198C269.48 41.1798 268.58 41.5998 267.56 41.8798C266.56 42.1598 265.52 42.2998 264.44 42.2998Z" fill="#E8F3FF"/>
<path d="M283.324 41.9998C282.324 41.9998 281.424 41.7498 280.624 41.2498C279.824 40.7298 279.194 40.0298 278.734 39.1498C278.274 38.2698 278.044 37.2798 278.044 36.1798V21.8698C278.044 21.4298 278.184 21.0698 278.464 20.7898C278.744 20.5098 279.104 20.3698 279.544 20.3698C279.984 20.3698 280.344 20.5098 280.624 20.7898C280.904 21.0698 281.044 21.4298 281.044 21.8698V36.1798C281.044 36.9798 281.264 37.6498 281.704 38.1898C282.144 38.7298 282.684 38.9998 283.324 38.9998H284.344C284.704 38.9998 285.004 39.1398 285.244 39.4198C285.504 39.6998 285.634 40.0598 285.634 40.4998C285.634 40.9398 285.464 41.2998 285.124 41.5798C284.804 41.8598 284.384 41.9998 283.864 41.9998H283.324ZM276.664 28.7698C276.244 28.7698 275.904 28.6498 275.644 28.4098C275.384 28.1698 275.254 27.8698 275.254 27.5098C275.254 27.1098 275.384 26.7898 275.644 26.5498C275.904 26.3098 276.244 26.1898 276.664 26.1898H283.594C284.014 26.1898 284.354 26.3098 284.614 26.5498C284.874 26.7898 285.004 27.1098 285.004 27.5098C285.004 27.8698 284.874 28.1698 284.614 28.4098C284.354 28.6498 284.014 28.7698 283.594 28.7698H276.664Z" fill="#E8F3FF"/>
<path d="M296.295 42.1498C294.915 42.1498 293.675 41.8598 292.575 41.2798C291.495 40.6798 290.635 39.8098 289.995 38.6698C289.375 37.5298 289.065 36.1298 289.065 34.4698V27.0898C289.065 26.6498 289.205 26.2898 289.485 26.0098C289.785 25.7098 290.155 25.5598 290.595 25.5598C291.035 25.5598 291.395 25.7098 291.675 26.0098C291.975 26.2898 292.125 26.6498 292.125 27.0898V34.4698C292.125 35.5898 292.335 36.5198 292.755 37.2598C293.175 37.9798 293.745 38.5198 294.465 38.8798C295.185 39.2198 295.995 39.3898 296.895 39.3898C297.755 39.3898 298.515 39.2198 299.175 38.8798C299.855 38.5398 300.395 38.0798 300.795 37.4998C301.195 36.9198 301.395 36.2698 301.395 35.5498H303.285C303.285 36.7898 302.975 37.9098 302.355 38.9098C301.755 39.9098 300.925 40.6998 299.865 41.2798C298.825 41.8598 297.635 42.1498 296.295 42.1498ZM302.925 41.9998C302.485 41.9998 302.115 41.8598 301.815 41.5798C301.535 41.2798 301.395 40.9098 301.395 40.4698V27.0898C301.395 26.6298 301.535 26.2598 301.815 25.9798C302.115 25.6998 302.485 25.5598 302.925 25.5598C303.385 25.5598 303.755 25.6998 304.035 25.9798C304.315 26.2598 304.455 26.6298 304.455 27.0898V40.4698C304.455 40.9098 304.315 41.2798 304.035 41.5798C303.755 41.8598 303.385 41.9998 302.925 41.9998Z" fill="#E8F3FF"/>
<path d="M317.284 42.1198C315.724 42.1198 314.314 41.7598 313.054 41.0398C311.814 40.2998 310.824 39.2998 310.084 38.0398C309.364 36.7798 309.004 35.3598 309.004 33.7798C309.004 32.1998 309.334 30.7898 309.994 29.5498C310.674 28.2898 311.594 27.2998 312.754 26.5798C313.914 25.8398 315.224 25.4698 316.684 25.4698C317.864 25.4698 318.954 25.7198 319.954 26.2198C320.954 26.6998 321.794 27.3598 322.474 28.1998V20.0998C322.474 19.6398 322.614 19.2698 322.894 18.9898C323.194 18.7098 323.564 18.5698 324.004 18.5698C324.464 18.5698 324.834 18.7098 325.114 18.9898C325.394 19.2698 325.534 19.6398 325.534 20.0998V33.7798C325.534 35.3598 325.164 36.7798 324.424 38.0398C323.704 39.2998 322.724 40.2998 321.484 41.0398C320.244 41.7598 318.844 42.1198 317.284 42.1198ZM317.284 39.4198C318.304 39.4198 319.214 39.1798 320.014 38.6998C320.814 38.1998 321.444 37.5198 321.904 36.6598C322.364 35.7998 322.594 34.8398 322.594 33.7798C322.594 32.6998 322.364 31.7398 321.904 30.8998C321.444 30.0598 320.814 29.3998 320.014 28.9198C319.214 28.4198 318.304 28.1698 317.284 28.1698C316.284 28.1698 315.374 28.4198 314.554 28.9198C313.754 29.3998 313.114 30.0598 312.634 30.8998C312.174 31.7398 311.944 32.6998 311.944 33.7798C311.944 34.8398 312.174 35.7998 312.634 36.6598C313.114 37.5198 313.754 38.1998 314.554 38.6998C315.374 39.1798 316.284 39.4198 317.284 39.4198Z" fill="#E8F3FF"/>
<path d="M338.648 42.1198C336.988 42.1198 335.508 41.7698 334.208 41.0698C332.928 40.3498 331.918 39.3698 331.178 38.1298C330.458 36.8698 330.098 35.4298 330.098 33.8098C330.098 32.1698 330.438 30.7298 331.118 29.4898C331.818 28.2298 332.778 27.2498 333.998 26.5498C335.218 25.8298 336.618 25.4698 338.198 25.4698C339.758 25.4698 341.098 25.8198 342.218 26.5198C343.338 27.1998 344.188 28.1498 344.768 29.3698C345.368 30.5698 345.668 31.9598 345.668 33.5398C345.668 33.9198 345.538 34.2398 345.278 34.4998C345.018 34.7398 344.688 34.8598 344.288 34.8598H332.198V32.4598H344.198L342.968 33.2998C342.948 32.2998 342.748 31.4098 342.368 30.6298C341.988 29.8298 341.448 29.1998 340.748 28.7398C340.048 28.2798 339.198 28.0498 338.198 28.0498C337.058 28.0498 336.078 28.2998 335.258 28.7998C334.458 29.2998 333.848 29.9898 333.428 30.8698C333.008 31.7298 332.798 32.7098 332.798 33.8098C332.798 34.9098 333.048 35.8898 333.548 36.7498C334.048 37.6098 334.738 38.2898 335.618 38.7898C336.498 39.2898 337.508 39.5398 338.648 39.5398C339.268 39.5398 339.898 39.4298 340.538 39.2098C341.198 38.9698 341.728 38.6998 342.128 38.3998C342.428 38.1798 342.748 38.0698 343.088 38.0698C343.448 38.0498 343.758 38.1498 344.018 38.3698C344.358 38.6698 344.538 38.9998 344.558 39.3598C344.578 39.7198 344.418 40.0298 344.078 40.2898C343.398 40.8298 342.548 41.2698 341.528 41.6098C340.528 41.9498 339.568 42.1198 338.648 42.1198Z" fill="#E8F3FF"/>
<path d="M363.431 42.0298C362.991 42.0298 362.621 41.8898 362.321 41.6098C362.041 41.3098 361.901 40.9398 361.901 40.4998V33.1198C361.901 31.9798 361.691 31.0498 361.271 30.3298C360.851 29.6098 360.281 29.0798 359.561 28.7398C358.861 28.3798 358.051 28.1998 357.131 28.1998C356.291 28.1998 355.531 28.3698 354.851 28.7098C354.171 29.0498 353.631 29.5098 353.231 30.0898C352.831 30.6498 352.631 31.2998 352.631 32.0398H350.741C350.741 30.7798 351.041 29.6598 351.641 28.6798C352.261 27.6798 353.101 26.8898 354.161 26.3098C355.221 25.7298 356.411 25.4398 357.731 25.4398C359.111 25.4398 360.341 25.7398 361.421 26.3398C362.521 26.9198 363.381 27.7798 364.001 28.9198C364.641 30.0598 364.961 31.4598 364.961 33.1198V40.4998C364.961 40.9398 364.811 41.3098 364.511 41.6098C364.231 41.8898 363.871 42.0298 363.431 42.0298ZM351.101 42.0298C350.661 42.0298 350.291 41.8898 349.991 41.6098C349.711 41.3098 349.571 40.9398 349.571 40.4998V27.1198C349.571 26.6598 349.711 26.2898 349.991 26.0098C350.291 25.7298 350.661 25.5898 351.101 25.5898C351.561 25.5898 351.931 25.7298 352.211 26.0098C352.491 26.2898 352.631 26.6598 352.631 27.1198V40.4998C352.631 40.9398 352.491 41.3098 352.211 41.6098C351.931 41.8898 351.561 42.0298 351.101 42.0298Z" fill="#E8F3FF"/>
<path d="M375.99 41.9998C374.99 41.9998 374.09 41.7498 373.29 41.2498C372.49 40.7298 371.86 40.0298 371.4 39.1498C370.94 38.2698 370.71 37.2798 370.71 36.1798V21.8698C370.71 21.4298 370.85 21.0698 371.13 20.7898C371.41 20.5098 371.77 20.3698 372.21 20.3698C372.65 20.3698 373.01 20.5098 373.29 20.7898C373.57 21.0698 373.71 21.4298 373.71 21.8698V36.1798C373.71 36.9798 373.93 37.6498 374.37 38.1898C374.81 38.7298 375.35 38.9998 375.99 38.9998H377.01C377.37 38.9998 377.67 39.1398 377.91 39.4198C378.17 39.6998 378.3 40.0598 378.3 40.4998C378.3 40.9398 378.13 41.2998 377.79 41.5798C377.47 41.8598 377.05 41.9998 376.53 41.9998H375.99ZM369.33 28.7698C368.91 28.7698 368.57 28.6498 368.31 28.4098C368.05 28.1698 367.92 27.8698 367.92 27.5098C367.92 27.1098 368.05 26.7898 368.31 26.5498C368.57 26.3098 368.91 26.1898 369.33 26.1898H376.26C376.68 26.1898 377.02 26.3098 377.28 26.5498C377.54 26.7898 377.67 27.1098 377.67 27.5098C377.67 27.8698 377.54 28.1698 377.28 28.4098C377.02 28.6498 376.68 28.7698 376.26 28.7698H369.33Z" fill="#E8F3FF"/>
<path d="M388.031 42.1198C386.631 42.1198 385.331 41.9098 384.131 41.4898C382.951 41.0498 382.031 40.4998 381.371 39.8398C381.071 39.5198 380.941 39.1598 380.981 38.7598C381.041 38.3398 381.241 37.9998 381.581 37.7398C381.981 37.4198 382.371 37.2898 382.751 37.3498C383.151 37.3898 383.491 37.5598 383.771 37.8598C384.111 38.2398 384.651 38.5998 385.391 38.9398C386.151 39.2598 386.991 39.4198 387.911 39.4198C389.071 39.4198 389.951 39.2298 390.551 38.8498C391.171 38.4698 391.491 37.9798 391.511 37.3798C391.531 36.7798 391.241 36.2598 390.641 35.8198C390.061 35.3798 388.991 35.0198 387.431 34.7398C385.411 34.3398 383.941 33.7398 383.021 32.9398C382.121 32.1398 381.671 31.1598 381.671 29.9998C381.671 28.9798 381.971 28.1398 382.571 27.4798C383.171 26.7998 383.941 26.2998 384.881 25.9798C385.821 25.6398 386.801 25.4698 387.821 25.4698C389.141 25.4698 390.311 25.6798 391.331 26.0998C392.351 26.5198 393.161 27.0998 393.761 27.8398C394.041 28.1598 394.171 28.4998 394.151 28.8598C394.131 29.1998 393.961 29.4898 393.641 29.7298C393.321 29.9498 392.941 30.0198 392.501 29.9398C392.061 29.8598 391.691 29.6798 391.391 29.3998C390.891 28.9198 390.351 28.5898 389.771 28.4098C389.191 28.2298 388.521 28.1398 387.761 28.1398C386.881 28.1398 386.131 28.2898 385.511 28.5898C384.911 28.8898 384.611 29.3298 384.611 29.9098C384.611 30.2698 384.701 30.5998 384.881 30.8998C385.081 31.1798 385.461 31.4398 386.021 31.6798C386.581 31.8998 387.401 32.1198 388.481 32.3398C389.981 32.6398 391.161 33.0198 392.021 33.4798C392.901 33.9398 393.531 34.4798 393.911 35.0998C394.291 35.6998 394.481 36.3998 394.481 37.1998C394.481 38.1198 394.231 38.9498 393.731 39.6898C393.251 40.4298 392.531 41.0198 391.571 41.4598C390.631 41.8998 389.451 42.1198 388.031 42.1198Z" fill="#E8F3FF"/>
<path d="M107.452 18.7764C107.452 19.7365 107.071 20.6572 106.392 21.3361C105.713 22.015 104.793 22.3964 103.832 22.3964H99.7724C99.2124 27.7964 98.9324 31.4964 98.9324 33.4964C98.8284 34.7186 99.1461 35.9397 99.8324 36.9564C100.103 37.2909 100.446 37.5594 100.836 37.7413C101.226 37.9232 101.652 38.0139 102.082 38.0064C102.734 38.0151 103.362 37.7673 103.832 37.3164C104.411 36.6685 104.786 35.8654 104.912 35.0064H105.772C105.492 37.7064 104.902 39.5564 103.982 40.5864C103.589 41.063 103.096 41.4478 102.538 41.7138C101.98 41.9798 101.371 42.1206 100.752 42.1264C100.108 42.122 99.4744 41.9592 98.9076 41.6523C98.3409 41.3453 97.8583 40.9037 97.5024 40.3664C96.6324 39.1864 96.2024 37.0964 96.2024 34.0764C96.2024 31.6964 96.4991 27.8164 97.0924 22.4364H94.7724C93.6839 22.3747 92.6006 22.6281 91.6524 23.1664C90.8533 23.7468 90.1939 24.4984 89.7224 25.3664C89.6257 25.5299 89.4883 25.6656 89.3236 25.7602C89.1589 25.8548 88.9724 25.9052 88.7824 25.9064H88.5024C89.6824 22.7597 90.7391 20.7897 91.6724 19.9964C92.8253 19.1445 94.2418 18.7267 95.6724 18.8164L107.452 18.7764Z" fill="#E8F3FF"/>
<path d="M116.262 41.3161V24.8361C116.309 23.8451 116.218 22.8523 115.992 21.8861C115.866 21.4428 115.612 21.0463 115.262 20.7461C114.944 20.5127 114.557 20.3929 114.162 20.4061C113.876 20.4102 113.594 20.4757 113.335 20.5982C113.076 20.7207 112.847 20.8973 112.662 21.1161C112.216 21.7526 111.928 22.4862 111.822 23.2561C111.778 23.4873 111.653 23.6952 111.47 23.8434C111.287 23.9915 111.058 24.0704 110.822 24.0661H110.652C110.721 22.3835 111.335 20.769 112.402 19.4661C112.861 19.0151 113.408 18.6627 114.008 18.4305C114.608 18.1984 115.249 18.0914 115.892 18.1161C116.464 18.0808 117.037 18.1668 117.573 18.3684C118.109 18.5701 118.596 18.8828 119.002 19.2861C119.722 20.0661 120.142 21.5061 120.252 23.6061C121.655 21.8552 123.31 20.3218 125.162 19.0561C126.257 18.4446 127.489 18.1212 128.742 18.1161C130.1 18.0561 131.438 18.4541 132.542 19.2461C133.516 19.9688 134.22 20.9968 134.542 22.1661C134.975 24.2232 135.149 26.326 135.062 28.4261V43.3661C135.062 45.8361 135.062 47.5961 135.232 48.6261C135.378 49.8348 135.626 51.029 135.972 52.1961H134.662C133.812 52.1999 132.987 51.8997 132.338 51.3497C131.689 50.7997 131.258 50.036 131.122 49.1961C130.978 48.0049 130.905 46.8061 130.902 45.6061V27.6061C131.022 26.0921 130.81 24.5702 130.282 23.1461C129.99 22.529 129.524 22.0103 128.941 21.6534C128.359 21.2965 127.685 21.1168 127.002 21.1361C125.94 21.1604 124.903 21.4713 124.002 22.0361C122.619 22.9719 121.38 24.1037 120.322 25.3961V41.3161H116.262Z" fill="#E8F3FF"/>
<path d="M147.932 29.2362C146.447 28.8125 145.095 28.0175 144.002 26.9262C143.335 26.0972 142.981 25.0599 143.002 23.9962C143.006 23.2459 143.189 22.5074 143.537 21.8427C143.885 21.178 144.388 20.6065 145.002 20.1762C146.978 18.7059 149.403 17.9672 151.862 18.0862C153.399 18.0672 154.931 18.2658 156.412 18.6762C157.463 18.9005 158.422 19.4373 159.162 20.2161C159.593 20.7173 159.846 21.3465 159.882 22.0062C159.877 22.2693 159.817 22.5285 159.707 22.7677C159.597 23.0068 159.439 23.2207 159.242 23.3962C159.053 23.5948 158.825 23.7524 158.572 23.8591C158.319 23.9657 158.047 24.0192 157.772 24.0162C156.872 24.0162 156.122 23.4362 155.522 22.2562C155.174 21.4398 154.656 20.707 154.002 20.1062C153.295 19.6587 152.469 19.4356 151.632 19.4661C150.991 19.4337 150.349 19.5312 149.746 19.7528C149.143 19.9745 148.59 20.3158 148.122 20.7562C147.676 21.2205 147.329 21.7716 147.103 22.3753C146.878 22.979 146.779 23.6226 146.812 24.2662C146.732 25.4706 147.119 26.6597 147.892 27.5862C148.282 27.9812 148.75 28.2889 149.268 28.4889C149.785 28.6889 150.339 28.7766 150.892 28.7462C151.361 28.7453 151.829 28.7118 152.292 28.6462C152.922 28.5497 153.556 28.493 154.192 28.4762C154.688 28.4322 155.186 28.5256 155.632 28.7462C155.744 28.8127 155.837 28.9061 155.904 29.0179C155.97 29.1297 156.007 29.2563 156.012 29.3862C156.015 29.4997 155.986 29.6116 155.93 29.7102C155.873 29.8088 155.791 29.8903 155.692 29.9462C155.22 30.2058 154.68 30.3173 154.142 30.2662C153.871 30.2589 153.601 30.2355 153.332 30.1962C152.64 30.0969 151.942 30.0401 151.242 30.0262C150.615 30.0038 149.989 30.1123 149.406 30.3447C148.822 30.5771 148.293 30.9284 147.852 31.3762C147.406 31.8532 147.06 32.4151 146.835 33.0283C146.61 33.6415 146.511 34.2937 146.542 34.9461C146.457 36.4058 146.945 37.841 147.902 38.9461C148.356 39.422 148.905 39.7963 149.513 40.0445C150.122 40.2928 150.776 40.4092 151.432 40.3862C152.48 40.4407 153.507 40.0816 154.292 39.3862C154.907 38.6304 155.366 37.7603 155.642 36.8262C155.807 36.2613 156.064 35.7275 156.402 35.2462C156.734 34.8897 157.165 34.6428 157.641 34.5384C158.116 34.434 158.611 34.477 159.061 34.6618C159.511 34.8466 159.894 35.1643 160.159 35.5725C160.424 35.9807 160.557 36.4599 160.542 36.9461C160.481 37.5747 160.271 38.1797 159.93 38.7116C159.589 39.2434 159.128 39.6871 158.582 40.0062C156.454 41.4242 153.928 42.1249 151.372 42.0062C148.292 42.0062 145.912 41.3262 144.252 40.0062C143.516 39.496 142.907 38.8227 142.474 38.0387C142.04 37.2547 141.793 36.3812 141.752 35.4862C141.779 34.2351 142.254 33.0353 143.092 32.1061C144.449 30.771 146.11 29.786 147.932 29.2362Z" fill="#E8F3FF"/>
<path d="M176.872 36.7463L181.372 28.7463C182.063 27.6168 182.452 26.3291 182.502 25.0063C182.484 24.3337 182.403 23.6642 182.262 23.0063C182.095 22.2696 181.988 21.5204 181.942 20.7663C181.908 20.0623 182.144 19.3717 182.602 18.8363C182.813 18.6011 183.073 18.4141 183.363 18.2881C183.653 18.1622 183.966 18.1001 184.282 18.1063C184.61 18.0897 184.937 18.1416 185.244 18.2587C185.55 18.3757 185.829 18.5554 186.062 18.7863C186.291 19.0459 186.467 19.3484 186.579 19.6762C186.69 20.0041 186.736 20.3508 186.712 20.6963C186.718 21.2948 186.637 21.8909 186.472 22.4663C186 23.7844 185.414 25.0591 184.722 26.2763L181.102 32.6063L176.022 41.6063C175.953 41.7308 175.851 41.8345 175.728 41.9066C175.605 41.9787 175.465 42.0166 175.322 42.0163C175.162 42.018 175.004 41.9712 174.87 41.882C174.736 41.7928 174.633 41.6653 174.572 41.5163L168.402 26.3863C167.838 24.7857 167.104 23.2503 166.212 21.8063C165.966 21.4389 165.638 21.1327 165.255 20.9109C164.872 20.6891 164.444 20.5575 164.002 20.5263C163.696 20.5361 163.391 20.5763 163.092 20.6463C163.094 20.3762 163.182 20.1138 163.344 19.8978C163.506 19.6817 163.733 19.5234 163.992 19.4463L168.562 18.1163L169.212 17.9463C169.212 17.9463 170.812 21.2863 171.782 23.5263L176.872 36.7463Z" fill="#E8F3FF"/>
<path d="M213.045 18.6456H215.495L212.245 29.8356C212.035 30.5456 211.695 31.6556 211.245 33.1656C211.548 34.7182 212.017 36.2337 212.645 37.6856C212.865 38.0897 213.188 38.4283 213.582 38.6671C213.975 38.906 214.425 39.0365 214.885 39.0456C215.227 39.0396 215.564 38.9648 215.877 38.8257C216.19 38.6865 216.471 38.4859 216.705 38.2356C217.195 37.7372 217.541 37.1151 217.705 36.4356C217.761 36.2274 217.882 36.0429 218.052 35.9095C218.221 35.7762 218.429 35.7012 218.645 35.6956H218.845C218.615 38.0556 218.115 39.6956 217.355 40.5956C217.043 41.0056 216.643 41.34 216.184 41.5737C215.725 41.8075 215.22 41.9346 214.705 41.9456C214.221 41.9358 213.745 41.8258 213.306 41.6227C212.867 41.4196 212.475 41.1278 212.155 40.7656C211.395 39.9789 210.728 38.2889 210.155 35.6956C209.585 36.8742 208.855 37.9679 207.985 38.9456C207.094 39.9044 206.024 40.679 204.835 41.2256C203.615 41.7432 202.3 41.9987 200.975 41.9756C197.345 41.9756 194.685 40.7656 192.975 38.3556C191.267 35.9473 190.37 33.0577 190.415 30.1056C190.272 26.9084 191.344 23.7756 193.415 21.3356C194.266 20.2986 195.333 19.4605 196.542 18.88C197.752 18.2996 199.073 17.9909 200.415 17.9756C202.214 17.9514 203.964 18.5563 205.365 19.6856C206.795 20.8256 208.085 22.9456 209.255 26.0456L210.915 20.2156C211.048 19.7565 211.329 19.3542 211.714 19.0705C212.099 18.7868 212.567 18.6375 213.045 18.6456ZM208.435 28.8056C207.548 25.4256 206.405 23.0656 205.005 21.7256C203.905 20.5273 202.379 19.8091 200.755 19.7256C199.911 19.7599 199.092 20.024 198.387 20.4892C197.683 20.9544 197.118 21.6032 196.755 22.3656C195.688 24.1323 195.155 26.9423 195.155 30.7956C195.09 32.6145 195.323 34.4318 195.845 36.1756C196.229 37.3579 196.952 38.4012 197.925 39.1756C198.755 39.8547 199.792 40.232 200.865 40.2456C201.536 40.2235 202.193 40.0554 202.793 39.7532C203.392 39.451 203.918 39.0218 204.335 38.4956C205.748 36.9423 207.115 33.7123 208.435 28.8056Z" fill="#E8F3FF"/>
<path d="M44.2025 12.3562L44.1125 12.5262C44.0929 12.5563 44.0663 12.5812 44.0349 12.5986C44.0036 12.616 43.9684 12.6255 43.9325 12.6262H1.54251C1.50662 12.6255 1.47146 12.616 1.44009 12.5986C1.40871 12.5812 1.38208 12.5563 1.36251 12.5262L1.27251 12.3562C1.24836 12.3233 1.23387 12.2842 1.23066 12.2435C1.22745 12.2028 1.23565 12.1619 1.25434 12.1256C1.27303 12.0893 1.30146 12.0589 1.33647 12.0378C1.37147 12.0167 1.41165 12.0058 1.45251 12.0062H44.0025C44.0467 11.9957 44.0931 11.9997 44.1348 12.0178C44.1764 12.0358 44.2111 12.0669 44.2337 12.1063C44.2562 12.1457 44.2653 12.1914 44.2597 12.2365C44.2541 12.2815 44.234 12.3235 44.2025 12.3562Z" fill="#E8F3FF"/>
<path d="M44.7724 42.0062H0.672352C0.512352 42.0062 0.422352 41.9062 0.502352 41.8062L0.782352 41.4262C0.810696 41.3977 0.845491 41.3765 0.883788 41.3643C0.922085 41.3521 0.962755 41.3493 1.00235 41.3562H44.4924C44.5264 41.3554 44.5602 41.3621 44.5914 41.376C44.6225 41.3898 44.6501 41.4104 44.6724 41.4362L44.9524 41.8062C45.0024 41.9062 44.9324 42.0062 44.7724 42.0062Z" fill="#E8F3FF"/>
<path d="M9.85242 14.0062L9.73242 14.2662C9.71842 14.2946 9.69718 14.3188 9.67084 14.3363C9.64451 14.3539 9.61401 14.3642 9.58242 14.3662H2.28242C2.24911 14.366 2.21652 14.3565 2.18827 14.3388C2.16002 14.3212 2.13722 14.296 2.12242 14.2662L2.00242 14.0062C1.99053 13.9799 1.98552 13.951 1.98787 13.9223C1.99022 13.8935 1.99985 13.8658 2.01586 13.8418C2.03186 13.8178 2.05371 13.7983 2.07935 13.785C2.10499 13.7718 2.13358 13.7653 2.16242 13.7662H9.70242C9.73041 13.767 9.75778 13.7747 9.78207 13.7886C9.80637 13.8026 9.82685 13.8223 9.84169 13.846C9.85654 13.8698 9.86528 13.8968 9.86715 13.9248C9.86902 13.9527 9.86396 13.9807 9.85242 14.0062Z" fill="#E8F3FF"/>
<path d="M9.4221 14.9065L9.1621 15.4665C9.14854 15.4944 9.12713 15.5178 9.10049 15.5338C9.07386 15.5498 9.04315 15.5577 9.0121 15.5565H2.8521C2.81962 15.5584 2.78727 15.5509 2.75891 15.535C2.73055 15.519 2.70736 15.4952 2.6921 15.4665L2.4321 14.9065C2.42056 14.881 2.4155 14.853 2.41737 14.8251C2.41924 14.7971 2.42799 14.7701 2.44283 14.7463C2.45768 14.7226 2.47816 14.7029 2.50245 14.6889C2.52675 14.675 2.55411 14.6673 2.5821 14.6665H9.27211C9.3001 14.6673 9.32746 14.675 9.35176 14.6889C9.37605 14.7029 9.39653 14.7226 9.41138 14.7463C9.42622 14.7701 9.43497 14.7971 9.43684 14.8251C9.43871 14.853 9.43365 14.881 9.4221 14.9065Z" fill="#E8F3FF"/>
<path d="M3.20231 16.0064H4.00231C4.07922 16.0064 4.15298 16.0369 4.20737 16.0913C4.26175 16.1457 4.29231 16.2195 4.29231 16.2964V38.0064C4.29231 38.0833 4.26175 38.157 4.20737 38.2114C4.15298 38.2658 4.07922 38.2964 4.00231 38.2964H3.21231C3.13539 38.2964 3.06163 38.2658 3.00725 38.2114C2.95286 38.157 2.92231 38.0833 2.92231 38.0064V16.3264C2.91653 16.2864 2.91948 16.2456 2.93094 16.2069C2.94241 16.1682 2.96211 16.1324 2.98871 16.102C3.01531 16.0716 3.04817 16.0473 3.08504 16.0308C3.12191 16.0143 3.16192 16.0059 3.20231 16.0064Z" fill="#E8F3FF"/>
<path d="M5.5125 16.0064H6.3425C6.41767 16.009 6.48889 16.0406 6.54113 16.0948C6.59337 16.1489 6.62255 16.2212 6.6225 16.2964V38.0064C6.62255 38.0816 6.59337 38.1539 6.54113 38.208C6.48889 38.2621 6.41767 38.2938 6.3425 38.2964H5.5125C5.43559 38.2964 5.36183 38.2658 5.30744 38.2114C5.25305 38.157 5.2225 38.0833 5.2225 38.0064V16.3364C5.21675 16.2951 5.21997 16.253 5.23194 16.2131C5.24392 16.1731 5.26436 16.1362 5.29189 16.1049C5.31941 16.0736 5.35337 16.0486 5.39144 16.0316C5.42951 16.0146 5.4708 16.006 5.5125 16.0064Z" fill="#E8F3FF"/>
<path d="M7.8123 16.0064H8.64231C8.67993 16.0063 8.71718 16.0139 8.75182 16.0286C8.78646 16.0433 8.81778 16.0648 8.84392 16.0919C8.87005 16.1189 8.89046 16.151 8.90393 16.1861C8.9174 16.2213 8.92365 16.2588 8.9223 16.2964V38.0064C8.92365 38.044 8.9174 38.0815 8.90393 38.1166C8.89046 38.1517 8.87005 38.1838 8.84392 38.2108C8.81778 38.2379 8.78646 38.2594 8.75182 38.2741C8.71718 38.2888 8.67993 38.2964 8.64231 38.2964H7.8123C7.77422 38.2964 7.73651 38.2889 7.70133 38.2743C7.66614 38.2597 7.63417 38.2384 7.60724 38.2114C7.58031 38.1845 7.55895 38.1525 7.54438 38.1173C7.52981 38.0822 7.5223 38.0444 7.5223 38.0064V16.3364C7.51655 16.2951 7.51977 16.253 7.53175 16.2131C7.54372 16.1731 7.56417 16.1362 7.59169 16.1049C7.61922 16.0736 7.65317 16.0486 7.69125 16.0316C7.72932 16.0146 7.77061 16.006 7.8123 16.0064Z" fill="#E8F3FF"/>
<path d="M45.1023 10.0064L23.4223 0.156377C23.1998 0.0533601 22.9575 0 22.7123 0C22.4671 0 22.2248 0.0533601 22.0023 0.156377L0.352314 10.0064C0.228216 10.061 0.126718 10.1567 0.0648975 10.2774C0.00307659 10.398 -0.0152948 10.5363 0.0128741 10.669C0.041043 10.8016 0.114033 10.9205 0.219565 11.0056C0.325096 11.0907 0.456728 11.1369 0.592314 11.1364H44.8523C44.9888 11.1393 45.122 11.0948 45.2294 11.0105C45.3367 10.9262 45.4115 10.8072 45.441 10.674C45.4705 10.5407 45.4528 10.4013 45.3911 10.2796C45.3293 10.1578 45.2273 10.0613 45.1023 10.0064ZM22.7223 8.67638C22.3643 8.67638 22.0144 8.57022 21.7167 8.37134C21.4191 8.17245 21.1871 7.88977 21.0501 7.55903C20.9131 7.2283 20.8773 6.86437 20.9471 6.51326C21.0169 6.16216 21.1893 5.83965 21.4424 5.58651C21.6956 5.33338 22.0181 5.16099 22.3692 5.09116C22.7203 5.02132 23.0842 5.05716 23.415 5.19415C23.7457 5.33115 24.0284 5.56314 24.2273 5.86079C24.4262 6.15845 24.5323 6.50839 24.5323 6.86638C24.5323 7.10407 24.4855 7.33943 24.3945 7.55903C24.3036 7.77863 24.1703 7.97817 24.0022 8.14624C23.8341 8.31431 23.6346 8.44764 23.415 8.5386C23.1954 8.62956 22.96 8.67638 22.7223 8.67638Z" fill="#E8F3FF"/>
<path d="M9.85249 40.3563L9.73249 40.1063C9.71849 40.078 9.69725 40.0538 9.67091 40.0362C9.64458 40.0187 9.61408 40.0084 9.58249 40.0063H2.28249C2.24918 40.0066 2.21659 40.016 2.18834 40.0337C2.16009 40.0514 2.13729 40.0765 2.12249 40.1063L2.00249 40.3563C1.99111 40.3833 1.98645 40.4125 1.98893 40.4417C1.9914 40.4708 2.00092 40.4989 2.01667 40.5235C2.03242 40.5481 2.05393 40.5685 2.07934 40.5829C2.10474 40.5974 2.13328 40.6054 2.16249 40.6063H9.70249C9.73185 40.6063 9.7607 40.5987 9.78625 40.5843C9.81179 40.5698 9.83316 40.549 9.84826 40.5238C9.86337 40.4986 9.87169 40.47 9.87244 40.4406C9.87318 40.4113 9.8663 40.3822 9.85249 40.3563Z" fill="#E8F3FF"/>
<path d="M9.4221 39.4564L9.1621 38.8964C9.1481 38.868 9.12686 38.8438 9.10053 38.8263C9.07419 38.8087 9.04369 38.7984 9.0121 38.7964H2.8521C2.81879 38.7966 2.7862 38.8061 2.75795 38.8237C2.7297 38.8414 2.70691 38.8665 2.6921 38.8964L2.4321 39.4564C2.42056 39.4819 2.4155 39.5099 2.41737 39.5378C2.41924 39.5658 2.42799 39.5928 2.44283 39.6166C2.45768 39.6403 2.47816 39.66 2.50245 39.6739C2.52675 39.6879 2.55411 39.6956 2.5821 39.6964H9.27211C9.3001 39.6956 9.32746 39.6879 9.35176 39.6739C9.37605 39.66 9.39653 39.6403 9.41138 39.6166C9.42622 39.5928 9.43497 39.5658 9.43684 39.5378C9.43871 39.5099 9.43365 39.4819 9.4221 39.4564Z" fill="#E8F3FF"/>
<path d="M21.0521 14.0062L20.9321 14.2662C20.9173 14.296 20.8945 14.3212 20.8663 14.3388C20.838 14.3565 20.8054 14.366 20.7721 14.3662H13.4721C13.4405 14.3642 13.41 14.3539 13.3837 14.3363C13.3574 14.3188 13.3361 14.2946 13.3221 14.2662L13.2021 14.0062C13.1906 13.9807 13.1855 13.9527 13.1874 13.9248C13.1893 13.8968 13.198 13.8698 13.2129 13.846C13.2277 13.8223 13.2482 13.8026 13.2725 13.7886C13.2968 13.7747 13.3241 13.767 13.3521 13.7662H20.8921C20.921 13.7653 20.9495 13.7718 20.9752 13.785C21.0008 13.7983 21.0227 13.8178 21.0387 13.8418C21.0547 13.8658 21.0643 13.8935 21.0667 13.9223C21.069 13.951 21.064 13.9799 21.0521 14.0062Z" fill="#E8F3FF"/>
<path d="M20.6223 14.9062L20.3523 15.4662C20.3398 15.495 20.3186 15.5192 20.2917 15.5354C20.2648 15.5515 20.2335 15.5588 20.2023 15.5562H14.0023C13.9712 15.5574 13.9405 15.5495 13.9139 15.5335C13.8872 15.5176 13.8658 15.4942 13.8523 15.4662L13.5923 14.9062C13.5807 14.8807 13.5757 14.8527 13.5775 14.8248C13.5794 14.7969 13.5881 14.7698 13.603 14.7461C13.6178 14.7223 13.6383 14.7026 13.6626 14.6887C13.6869 14.6747 13.7143 14.667 13.7423 14.6662H20.4223C20.4541 14.6568 20.4881 14.6568 20.5199 14.6664C20.5517 14.6761 20.58 14.6948 20.6013 14.7203C20.6226 14.7459 20.6359 14.7771 20.6397 14.8102C20.6434 14.8432 20.6373 14.8766 20.6223 14.9062Z" fill="#E8F3FF"/>
<path d="M14.4024 16.0063H15.2324C15.3093 16.0063 15.3831 16.0368 15.4375 16.0912C15.4919 16.1456 15.5224 16.2194 15.5224 16.2963V38.0063C15.5224 38.0832 15.4919 38.1569 15.4375 38.2113C15.3831 38.2657 15.3093 38.2963 15.2324 38.2963H14.4124C14.3355 38.2963 14.2617 38.2657 14.2074 38.2113C14.153 38.1569 14.1224 38.0832 14.1224 38.0063V16.3263C14.1148 16.286 14.1164 16.2445 14.1271 16.205C14.1379 16.1655 14.1575 16.1289 14.1845 16.0981C14.2115 16.0672 14.2451 16.0429 14.2829 16.027C14.3206 16.0111 14.3615 16.004 14.4024 16.0063Z" fill="#E8F3FF"/>
<path d="M16.7122 16.0064H17.5322C17.6091 16.0064 17.6829 16.0369 17.7373 16.0913C17.7917 16.1457 17.8222 16.2194 17.8222 16.2964V38.0064C17.8222 38.0833 17.7917 38.157 17.7373 38.2114C17.6829 38.2658 17.6091 38.2964 17.5322 38.2964H16.7122C16.6353 38.2964 16.5615 38.2658 16.5071 38.2114C16.4528 38.157 16.4222 38.0833 16.4222 38.0064V16.3364C16.4165 16.2951 16.4197 16.253 16.4316 16.2131C16.4436 16.1731 16.4641 16.1362 16.4916 16.1049C16.5191 16.0736 16.5531 16.0486 16.5911 16.0316C16.6292 16.0146 16.6705 16.006 16.7122 16.0064Z" fill="#E8F3FF"/>
<path d="M19.0022 16.0064H19.8222C19.8992 16.0064 19.9729 16.0369 20.0273 16.0913C20.0817 16.1457 20.1122 16.2194 20.1122 16.2964V38.0064C20.1122 38.0833 20.0817 38.157 20.0273 38.2114C19.9729 38.2658 19.8992 38.2964 19.8222 38.2964H19.0022C18.9253 38.2964 18.8516 38.2658 18.7972 38.2114C18.7428 38.157 18.7122 38.0833 18.7122 38.0064V16.3364C18.7065 16.2951 18.7097 16.253 18.7217 16.2131C18.7337 16.1731 18.7541 16.1362 18.7816 16.1049C18.8092 16.0736 18.8431 16.0486 18.8812 16.0316C18.9193 16.0146 18.9606 16.006 19.0022 16.0064Z" fill="#E8F3FF"/>
<path d="M21.0523 40.3563L20.9323 40.1063C20.9175 40.0765 20.8947 40.0514 20.8665 40.0337C20.8383 40.016 20.8057 40.0066 20.7723 40.0063H13.4723C13.4408 40.0084 13.4103 40.0187 13.3839 40.0362C13.3576 40.0538 13.3364 40.078 13.3223 40.1063L13.2023 40.3563C13.1877 40.3815 13.1802 40.4102 13.1807 40.4393C13.1811 40.4684 13.1896 40.4969 13.205 40.5216C13.2204 40.5463 13.2423 40.5663 13.2683 40.5795C13.2942 40.5926 13.3233 40.5985 13.3523 40.5963H20.8923C20.9212 40.5972 20.9498 40.5907 20.9754 40.5775C21.0011 40.5643 21.0229 40.5447 21.0389 40.5207C21.0549 40.4967 21.0645 40.469 21.0669 40.4403C21.0692 40.4115 21.0642 40.3826 21.0523 40.3563Z" fill="#E8F3FF"/>
<path d="M20.6223 39.4561L20.3523 38.8961C20.3415 38.8655 20.321 38.8391 20.294 38.8211C20.2669 38.8031 20.2347 38.7943 20.2023 38.7961H14.0023C13.9707 38.7981 13.9402 38.8084 13.9138 38.826C13.8875 38.8436 13.8663 38.8678 13.8523 38.8961L13.5923 39.4561C13.5807 39.4817 13.5757 39.5096 13.5775 39.5376C13.5794 39.5655 13.5881 39.5926 13.603 39.6163C13.6178 39.6401 13.6383 39.6598 13.6626 39.6737C13.6869 39.6876 13.7143 39.6953 13.7423 39.6961H20.4223C20.4541 39.7056 20.4881 39.7055 20.5199 39.6959C20.5517 39.6863 20.58 39.6676 20.6013 39.642C20.6226 39.6165 20.6359 39.5853 20.6397 39.5522C20.6434 39.5192 20.6373 39.4858 20.6223 39.4561Z" fill="#E8F3FF"/>
<path d="M32.2426 14.0065L32.1226 14.2665C32.1105 14.2964 32.0897 14.3218 32.063 14.3397C32.0362 14.3575 32.0047 14.3669 31.9726 14.3665H24.6726C24.6401 14.3684 24.6079 14.3596 24.5809 14.3416C24.5538 14.3236 24.5333 14.2972 24.5226 14.2665L24.3926 14.0065C24.3807 13.9803 24.3757 13.9514 24.378 13.9226C24.3804 13.8939 24.39 13.8662 24.406 13.8422C24.422 13.8182 24.4438 13.7986 24.4695 13.7854C24.4951 13.7722 24.5237 13.7657 24.5526 13.7665H32.0926C32.1216 13.7644 32.1507 13.7703 32.1766 13.7834C32.2026 13.7966 32.2245 13.8166 32.2399 13.8413C32.2554 13.866 32.2638 13.8944 32.2642 13.9236C32.2647 13.9527 32.2572 13.9814 32.2426 14.0065Z" fill="#E8F3FF"/>
<path d="M31.8122 14.9064L31.5522 15.4664C31.5387 15.4944 31.5173 15.5178 31.4906 15.5338C31.464 15.5497 31.4333 15.5576 31.4022 15.5564H25.2422C25.2112 15.5576 25.1805 15.5497 25.1539 15.5338C25.1272 15.5178 25.1058 15.4944 25.0922 15.4664L24.8222 14.9064C24.8103 14.8802 24.8053 14.8513 24.8077 14.8225C24.81 14.7938 24.8197 14.7661 24.8357 14.7421C24.8517 14.7181 24.8735 14.6985 24.8992 14.6853C24.9248 14.6721 24.9534 14.6656 24.9822 14.6664H31.6622C31.6913 14.6643 31.7204 14.6702 31.7463 14.6833C31.7723 14.6965 31.7942 14.7165 31.8096 14.7412C31.825 14.7659 31.8334 14.7943 31.8339 14.8235C31.8344 14.8526 31.8269 14.8813 31.8122 14.9064Z" fill="#E8F3FF"/>
<path d="M25.5924 16.0064H26.4324C26.5076 16.009 26.5788 16.0407 26.6311 16.0948C26.6833 16.1489 26.7125 16.2212 26.7124 16.2964V38.0064C26.7125 38.0816 26.6833 38.1539 26.6311 38.208C26.5788 38.2621 26.5076 38.2938 26.4324 38.2964H25.6024C25.5255 38.2964 25.4518 38.2658 25.3974 38.2114C25.343 38.157 25.3124 38.0833 25.3124 38.0064V16.3264C25.3067 16.2864 25.3096 16.2456 25.3211 16.2069C25.3325 16.1682 25.3522 16.1324 25.3788 16.102C25.4054 16.0716 25.4383 16.0473 25.4752 16.0308C25.5121 16.0143 25.5521 16.0059 25.5924 16.0064Z" fill="#E8F3FF"/>
<path d="M27.9024 16.0063H28.7324C28.8093 16.0063 28.8831 16.0369 28.9375 16.0913C28.9919 16.1457 29.0224 16.2194 29.0224 16.2963V38.0063C29.0224 38.0833 28.9919 38.157 28.9375 38.2114C28.8831 38.2658 28.8093 38.2963 28.7324 38.2963H27.9024C27.8272 38.2938 27.756 38.2621 27.7038 38.208C27.6515 38.1538 27.6224 38.0816 27.6224 38.0063V16.3363C27.6168 16.2959 27.6197 16.2547 27.6311 16.2154C27.6425 16.1762 27.6621 16.1398 27.6885 16.1086C27.7149 16.0775 27.7477 16.0523 27.7845 16.0346C27.8214 16.017 27.8616 16.0074 27.9024 16.0063Z" fill="#E8F3FF"/>
<path d="M30.2122 16.0063H31.0022C31.0791 16.0063 31.1529 16.0368 31.2073 16.0912C31.2616 16.1456 31.2922 16.2194 31.2922 16.2963V38.0063C31.2922 38.0832 31.2616 38.157 31.2073 38.2113C31.1529 38.2657 31.0791 38.2963 31.0022 38.2963H30.1822C30.1053 38.2963 30.0315 38.2657 29.9771 38.2113C29.9228 38.157 29.8922 38.0832 29.8922 38.0063V16.3363C29.8858 16.2923 29.8896 16.2475 29.9032 16.2052C29.9169 16.163 29.94 16.1244 29.971 16.0925C30.0019 16.0606 30.0397 16.0363 30.0815 16.0213C30.1234 16.0064 30.1681 16.0012 30.2122 16.0063Z" fill="#E8F3FF"/>
<path d="M32.2423 40.3566L32.1223 40.1066C32.1126 40.0811 32.0964 40.0585 32.0754 40.0409C32.0544 40.0234 32.0292 40.0116 32.0023 40.0066H24.7023C24.6699 40.0047 24.6377 40.0135 24.6106 40.0315C24.5836 40.0496 24.5631 40.0759 24.5523 40.1066L24.4223 40.3566C24.4104 40.3829 24.4054 40.4118 24.4078 40.4405C24.4101 40.4693 24.4198 40.497 24.4358 40.521C24.4518 40.545 24.4736 40.5645 24.4993 40.5777C24.5249 40.591 24.5535 40.5975 24.5823 40.5966H32.1223C32.1488 40.5936 32.1742 40.584 32.196 40.5688C32.2179 40.5535 32.2356 40.533 32.2475 40.5092C32.2594 40.4853 32.2652 40.4589 32.2643 40.4322C32.2634 40.4056 32.2558 40.3796 32.2423 40.3566Z" fill="#E8F3FF"/>
<path d="M31.8122 39.4564L31.5522 38.8964C31.5382 38.868 31.517 38.8438 31.4907 38.8263C31.4643 38.8087 31.4338 38.7984 31.4022 38.7964H25.2422C25.2101 38.7961 25.1786 38.8054 25.1518 38.8233C25.1251 38.8411 25.1043 38.8666 25.0922 38.8964L24.8222 39.4564C24.8103 39.4827 24.8053 39.5116 24.8077 39.5403C24.81 39.5691 24.8197 39.5968 24.8357 39.6208C24.8517 39.6448 24.8735 39.6643 24.8992 39.6775C24.9248 39.6908 24.9534 39.6973 24.9822 39.6964H31.6622C31.6913 39.6985 31.7204 39.6927 31.7463 39.6795C31.7723 39.6663 31.7942 39.6463 31.8096 39.6216C31.825 39.5969 31.8334 39.5685 31.8339 39.5394C31.8344 39.5103 31.8269 39.4816 31.8122 39.4564Z" fill="#E8F3FF"/>
<path d="M43.4525 14.0066L43.3325 14.2666C43.3185 14.295 43.2973 14.3192 43.2709 14.3367C43.2446 14.3543 43.2141 14.3646 43.1825 14.3666H35.8825C35.8492 14.3664 35.8166 14.3569 35.7884 14.3392C35.7601 14.3216 35.7373 14.2964 35.7225 14.2666L35.6025 14.0066C35.591 13.9811 35.5859 13.9531 35.5878 13.9252C35.5897 13.8972 35.5984 13.8702 35.6132 13.8464C35.6281 13.8227 35.6486 13.803 35.6729 13.789C35.6972 13.7751 35.7245 13.7674 35.7525 13.7666H43.3025C43.3305 13.7674 43.3579 13.7751 43.3822 13.789C43.4065 13.803 43.4269 13.8227 43.4418 13.8464C43.4566 13.8702 43.4654 13.8972 43.4672 13.9252C43.4691 13.9531 43.4641 13.9811 43.4525 14.0066Z" fill="#E8F3FF"/>
<path d="M43.0024 14.9066L42.7424 15.4666C42.7289 15.4945 42.7074 15.5179 42.6808 15.5339C42.6542 15.5499 42.6235 15.5578 42.5924 15.5566H36.4524C36.4199 15.5585 36.3876 15.551 36.3592 15.535C36.3309 15.5191 36.3077 15.4953 36.2924 15.4666L36.0024 14.9066C35.9909 14.8811 35.9858 14.8531 35.9877 14.8252C35.9896 14.7972 35.9983 14.7702 36.0131 14.7464C36.028 14.7227 36.0485 14.7029 36.0728 14.689C36.0971 14.6751 36.1244 14.6674 36.1524 14.6666H42.8424C42.8713 14.6657 42.8998 14.6722 42.9255 14.6854C42.9511 14.6987 42.973 14.7182 42.989 14.7422C43.005 14.7662 43.0146 14.7939 43.017 14.8227C43.0193 14.8514 43.0143 14.8803 43.0024 14.9066Z" fill="#E8F3FF"/>
<path d="M36.8024 16.0064H37.6324C37.7093 16.0064 37.7831 16.0369 37.8375 16.0913C37.8919 16.1457 37.9224 16.2195 37.9224 16.2964V38.0064C37.9224 38.0833 37.8919 38.157 37.8375 38.2114C37.7831 38.2658 37.7093 38.2964 37.6324 38.2964H36.8124C36.7355 38.2964 36.6617 38.2658 36.6073 38.2114C36.553 38.157 36.5224 38.0833 36.5224 38.0064V16.3264C36.5166 16.2864 36.5196 16.2456 36.531 16.2069C36.5425 16.1682 36.5622 16.1324 36.5888 16.102C36.6154 16.0716 36.6483 16.0473 36.6851 16.0308C36.722 16.0143 36.762 16.0059 36.8024 16.0064Z" fill="#E8F3FF"/>
<path d="M39.1121 16.0064H39.9321C40.009 16.0064 40.0828 16.0369 40.1372 16.0913C40.1916 16.1457 40.2221 16.2194 40.2221 16.2964V38.0064C40.2221 38.0833 40.1916 38.157 40.1372 38.2114C40.0828 38.2658 40.009 38.2964 39.9321 38.2964H39.1121C39.0352 38.2964 38.9614 38.2658 38.907 38.2114C38.8527 38.157 38.8221 38.0833 38.8221 38.0064V16.3364C38.8164 16.2951 38.8196 16.253 38.8316 16.2131C38.8435 16.1731 38.864 16.1362 38.8915 16.1049C38.919 16.0736 38.953 16.0486 38.9911 16.0316C39.0291 16.0146 39.0704 16.006 39.1121 16.0064Z" fill="#E8F3FF"/>
<path d="M41.4124 16.0064H42.2424C42.3176 16.009 42.3888 16.0406 42.441 16.0948C42.4933 16.1489 42.5224 16.2212 42.5224 16.2964V38.0064C42.5224 38.0816 42.4933 38.1539 42.441 38.208C42.3888 38.2621 42.3176 38.2938 42.2424 38.2964H41.4124C41.3355 38.2964 41.2617 38.2658 41.2073 38.2114C41.153 38.157 41.1224 38.0833 41.1224 38.0064V16.3364C41.1166 16.2951 41.1199 16.253 41.1318 16.2131C41.1438 16.1731 41.1643 16.1362 41.1918 16.1049C41.2193 16.0736 41.2533 16.0486 41.2913 16.0316C41.3294 16.0146 41.3707 16.006 41.4124 16.0064Z" fill="#E8F3FF"/>
<path d="M43.4525 40.3563L43.3325 40.1063C43.3185 40.078 43.2973 40.0538 43.2709 40.0362C43.2446 40.0187 43.2141 40.0084 43.1825 40.0063H35.8825C35.8492 40.0066 35.8166 40.016 35.7884 40.0337C35.7601 40.0514 35.7373 40.0765 35.7225 40.1063L35.6025 40.3563C35.591 40.3819 35.5859 40.4098 35.5878 40.4378C35.5897 40.4657 35.5984 40.4928 35.6132 40.5165C35.6281 40.5403 35.6486 40.56 35.6729 40.5739C35.6972 40.5878 35.7245 40.5955 35.7525 40.5963H43.3025C43.3316 40.5985 43.3606 40.5926 43.3866 40.5795C43.4126 40.5663 43.4344 40.5463 43.4499 40.5216C43.4653 40.4969 43.4737 40.4684 43.4742 40.4393C43.4746 40.4102 43.4672 40.3815 43.4525 40.3563Z" fill="#E8F3FF"/>
<path d="M43.0022 39.4564L42.7422 38.8964C42.7282 38.868 42.707 38.8438 42.6806 38.8263C42.6543 38.8087 42.6238 38.7984 42.5922 38.7964H36.4522C36.4189 38.7966 36.3863 38.8061 36.358 38.8237C36.3298 38.8414 36.307 38.8665 36.2922 38.8964L36.0322 39.4564C36.0207 39.4819 36.0156 39.5099 36.0175 39.5378C36.0193 39.5658 36.0281 39.5928 36.0429 39.6166C36.0578 39.6403 36.0783 39.66 36.1026 39.6739C36.1268 39.6879 36.1542 39.6956 36.1822 39.6964H42.8722C42.8985 39.6926 42.9235 39.6828 42.9452 39.6676C42.967 39.6524 42.9849 39.6324 42.9976 39.6091C43.0102 39.5858 43.0172 39.5598 43.018 39.5333C43.0188 39.5068 43.0134 39.4804 43.0022 39.4564Z" fill="#E8F3FF"/>
<path d="M76.0023 31.0064H63.2023L61.0023 36.2064C60.5763 37.0528 60.2989 37.9661 60.1823 38.9064C60.1737 39.1923 60.2326 39.4762 60.3542 39.7351C60.4758 39.994 60.6567 40.2205 60.8823 40.3964C61.8373 40.9094 62.9084 41.1677 63.9923 41.1464V42.0064H53.5723V41.1164C54.5336 41.019 55.4534 40.6745 56.2423 40.1164C57.4414 38.7463 58.3772 37.1665 59.0023 35.4564L70.5923 8.31641H71.4423L82.9223 35.7664C83.4599 37.3344 84.3104 38.7769 85.4223 40.0064C86.3292 40.7129 87.4427 41.1028 88.5923 41.1164V42.0064H75.5923V41.1164C76.5274 41.1592 77.4548 40.93 78.2623 40.4564C78.492 40.2444 78.6707 39.9831 78.785 39.6921C78.8993 39.4012 78.9462 39.0881 78.9223 38.7764C78.7631 37.6916 78.4252 36.6407 77.9223 35.6664L76.0023 31.0064ZM75.3123 29.2064L69.6923 15.8764L64.0023 29.2064H75.3123Z" fill="#E8F3FF"/>
<line x1="237" y1="11" x2="237" y2="48" stroke="#E8F3FF" stroke-width="2" stroke-linecap="round"/>
</svg>
