<svg width="285" height="53" viewBox="0 0 285 53" fill="none" xmlns="http://www.w3.org/2000/svg">
<path d="M283.666 12.3564L283.576 12.5264C283.556 12.5565 283.53 12.5813 283.498 12.5987C283.467 12.6162 283.432 12.6256 283.396 12.6264H241.006C240.97 12.6256 240.935 12.6162 240.903 12.5987C240.872 12.5813 240.845 12.5565 240.826 12.5264L240.736 12.3564C240.712 12.3234 240.697 12.2844 240.694 12.2436C240.691 12.2029 240.699 12.1621 240.718 12.1257C240.736 12.0894 240.765 12.059 240.8 12.0379C240.835 12.0168 240.875 12.0059 240.916 12.0064H283.466C283.51 11.9958 283.556 11.9999 283.598 12.0179C283.64 12.0359 283.675 12.067 283.697 12.1064C283.72 12.1458 283.729 12.1915 283.723 12.2366C283.717 12.2816 283.697 12.3237 283.666 12.3564Z" fill="#4EA7FF"/>
<path d="M284.235 42.0063H240.135C239.975 42.0063 239.885 41.9063 239.965 41.8063L240.245 41.4263C240.274 41.3979 240.308 41.3766 240.347 41.3644C240.385 41.3522 240.426 41.3495 240.465 41.3563H283.955C283.989 41.3555 284.023 41.3623 284.054 41.3761C284.085 41.3899 284.113 41.4105 284.135 41.4363L284.415 41.8063C284.465 41.9063 284.395 42.0063 284.235 42.0063Z" fill="#4EA7FF"/>
<path d="M249.314 14.0064L249.194 14.2664C249.18 14.2948 249.159 14.319 249.133 14.3366C249.106 14.3541 249.076 14.3644 249.044 14.3664H241.744C241.711 14.3662 241.678 14.3567 241.65 14.3391C241.622 14.3214 241.599 14.2963 241.584 14.2664L241.464 14.0064C241.452 13.9801 241.447 13.9513 241.45 13.9225C241.452 13.8938 241.462 13.8661 241.478 13.8421C241.494 13.8181 241.516 13.7985 241.541 13.7853C241.567 13.7721 241.595 13.7656 241.624 13.7664H249.164C249.192 13.7672 249.22 13.7749 249.244 13.7889C249.268 13.8028 249.289 13.8225 249.304 13.8463C249.318 13.87 249.327 13.8971 249.329 13.925C249.331 13.9529 249.326 13.9809 249.314 14.0064Z" fill="#4EA7FF"/>
<path d="M248.886 14.9064L248.626 15.4664C248.612 15.4943 248.591 15.5177 248.564 15.5337C248.538 15.5497 248.507 15.5576 248.476 15.5564H242.316C242.283 15.5583 242.251 15.5508 242.223 15.5348C242.194 15.5189 242.171 15.4951 242.156 15.4664L241.896 14.9064C241.884 14.8809 241.879 14.8529 241.881 14.825C241.883 14.797 241.892 14.77 241.907 14.7462C241.922 14.7225 241.942 14.7027 241.966 14.6888C241.991 14.6749 242.018 14.6672 242.046 14.6664H248.736C248.764 14.6672 248.791 14.6749 248.816 14.6888C248.84 14.7027 248.86 14.7225 248.875 14.7462C248.89 14.77 248.899 14.797 248.901 14.825C248.903 14.8529 248.898 14.8809 248.886 14.9064Z" fill="#4EA7FF"/>
<path d="M242.666 16.0064H243.466C243.543 16.0064 243.616 16.0369 243.671 16.0913C243.725 16.1457 243.756 16.2195 243.756 16.2964V38.0064C243.756 38.0833 243.725 38.157 243.671 38.2114C243.616 38.2658 243.543 38.2964 243.466 38.2964H242.676C242.599 38.2964 242.525 38.2658 242.471 38.2114C242.416 38.157 242.386 38.0833 242.386 38.0064V16.3264C242.38 16.2864 242.383 16.2456 242.394 16.2069C242.406 16.1682 242.425 16.1324 242.452 16.102C242.479 16.0716 242.512 16.0473 242.548 16.0308C242.585 16.0143 242.625 16.0059 242.666 16.0064Z" fill="#4EA7FF"/>
<path d="M244.974 16.0064H245.804C245.88 16.009 245.951 16.0406 246.003 16.0948C246.055 16.1489 246.084 16.2212 246.084 16.2964V38.0064C246.084 38.0816 246.055 38.1539 246.003 38.208C245.951 38.2621 245.88 38.2938 245.804 38.2964H244.974C244.898 38.2964 244.824 38.2658 244.769 38.2114C244.715 38.157 244.684 38.0833 244.684 38.0064V16.3364C244.679 16.2951 244.682 16.253 244.694 16.2131C244.706 16.1731 244.726 16.1362 244.754 16.1049C244.781 16.0736 244.815 16.0486 244.853 16.0316C244.891 16.0146 244.933 16.006 244.974 16.0064Z" fill="#4EA7FF"/>
<path d="M247.275 16.0064H248.105C248.143 16.0063 248.18 16.0139 248.215 16.0286C248.249 16.0433 248.281 16.0648 248.307 16.0919C248.333 16.1189 248.353 16.151 248.367 16.1861C248.38 16.2213 248.387 16.2588 248.385 16.2964V38.0064C248.387 38.044 248.38 38.0815 248.367 38.1166C248.353 38.1517 248.333 38.1838 248.307 38.2108C248.281 38.2379 248.249 38.2594 248.215 38.2741C248.18 38.2888 248.143 38.2964 248.105 38.2964H247.275C247.237 38.2964 247.199 38.2889 247.164 38.2743C247.129 38.2597 247.097 38.2384 247.07 38.2114C247.043 38.1845 247.022 38.1525 247.007 38.1173C246.993 38.0822 246.985 38.0444 246.985 38.0064V16.3364C246.979 16.2951 246.983 16.253 246.995 16.2131C247.007 16.1731 247.027 16.1362 247.055 16.1049C247.082 16.0736 247.116 16.0486 247.154 16.0316C247.192 16.0146 247.233 16.006 247.275 16.0064Z" fill="#4EA7FF"/>
<path d="M284.565 10.0064L262.885 0.156377C262.663 0.0533601 262.42 0 262.175 0C261.93 0 261.688 0.0533601 261.465 0.156377L239.815 10.0064C239.691 10.061 239.59 10.1567 239.528 10.2774C239.466 10.398 239.448 10.5363 239.476 10.669C239.504 10.8016 239.577 10.9205 239.682 11.0056C239.788 11.0907 239.92 11.1369 240.055 11.1364H284.315C284.452 11.1393 284.585 11.0948 284.692 11.0105C284.8 10.9262 284.874 10.8072 284.904 10.674C284.933 10.5407 284.916 10.4013 284.854 10.2796C284.792 10.1578 284.69 10.0613 284.565 10.0064ZM262.185 8.67638C261.827 8.67638 261.477 8.57022 261.18 8.37134C260.882 8.17245 260.65 7.88977 260.513 7.55903C260.376 7.2283 260.34 6.86437 260.41 6.51326C260.48 6.16216 260.652 5.83965 260.905 5.58651C261.158 5.33338 261.481 5.161 261.832 5.09116C262.183 5.02132 262.547 5.05716 262.878 5.19415C263.209 5.33115 263.491 5.56314 263.69 5.86079C263.889 6.15845 263.995 6.50839 263.995 6.86638C263.995 7.10407 263.948 7.33943 263.857 7.55903C263.766 7.77863 263.633 7.97817 263.465 8.14624C263.297 8.31431 263.097 8.44764 262.878 8.5386C262.658 8.62956 262.423 8.67638 262.185 8.67638Z" fill="#4EA7FF"/>
<path d="M249.315 40.3563L249.195 40.1063C249.181 40.078 249.16 40.0538 249.134 40.0362C249.107 40.0187 249.077 40.0084 249.045 40.0063H241.745C241.712 40.0066 241.679 40.016 241.651 40.0337C241.623 40.0514 241.6 40.0765 241.585 40.1063L241.465 40.3563C241.454 40.3833 241.449 40.4125 241.452 40.4417C241.454 40.4708 241.464 40.4989 241.48 40.5235C241.495 40.5481 241.517 40.5685 241.542 40.5829C241.568 40.5974 241.596 40.6054 241.625 40.6063H249.165C249.195 40.6063 249.224 40.5987 249.249 40.5843C249.275 40.5698 249.296 40.549 249.311 40.5238C249.326 40.4986 249.335 40.47 249.335 40.4406C249.336 40.4113 249.329 40.3822 249.315 40.3563Z" fill="#4EA7FF"/>
<path d="M248.886 39.4564L248.626 38.8964C248.612 38.868 248.591 38.8438 248.564 38.8263C248.538 38.8087 248.508 38.7984 248.476 38.7964H242.316C242.283 38.7966 242.25 38.8061 242.222 38.8237C242.194 38.8414 242.171 38.8665 242.156 38.8964L241.896 39.4564C241.884 39.4819 241.879 39.5099 241.881 39.5378C241.883 39.5658 241.892 39.5928 241.907 39.6166C241.922 39.6403 241.942 39.66 241.966 39.6739C241.991 39.6879 242.018 39.6956 242.046 39.6964H248.736C248.764 39.6956 248.791 39.6879 248.816 39.6739C248.84 39.66 248.86 39.6403 248.875 39.6166C248.89 39.5928 248.899 39.5658 248.901 39.5378C248.903 39.5099 248.898 39.4819 248.886 39.4564Z" fill="#4EA7FF"/>
<path d="M260.516 14.0064L260.396 14.2664C260.381 14.2963 260.358 14.3214 260.33 14.3391C260.301 14.3567 260.269 14.3662 260.236 14.3664H252.936C252.904 14.3644 252.873 14.3541 252.847 14.3366C252.821 14.319 252.8 14.2948 252.786 14.2664L252.666 14.0064C252.654 13.9809 252.649 13.9529 252.651 13.925C252.653 13.8971 252.661 13.87 252.676 13.8463C252.691 13.8225 252.712 13.8028 252.736 13.7889C252.76 13.7749 252.788 13.7672 252.816 13.7664H260.356C260.384 13.7656 260.413 13.7721 260.439 13.7853C260.464 13.7985 260.486 13.8181 260.502 13.8421C260.518 13.8661 260.528 13.8938 260.53 13.9225C260.532 13.9513 260.527 13.9801 260.516 14.0064Z" fill="#4EA7FF"/>
<path d="M260.086 14.9064L259.816 15.4664C259.804 15.4952 259.783 15.5193 259.756 15.5355C259.729 15.5516 259.697 15.5589 259.666 15.5564H253.466C253.435 15.5575 253.404 15.5497 253.378 15.5337C253.351 15.5177 253.33 15.4943 253.316 15.4664L253.056 14.9064C253.045 14.8808 253.04 14.8529 253.041 14.8249C253.043 14.797 253.052 14.7699 253.067 14.7462C253.082 14.7224 253.102 14.7027 253.126 14.6888C253.151 14.6749 253.178 14.6672 253.206 14.6664H259.886C259.918 14.6569 259.952 14.657 259.984 14.6666C260.016 14.6762 260.044 14.6949 260.065 14.7205C260.086 14.746 260.1 14.7772 260.104 14.8103C260.107 14.8433 260.101 14.8767 260.086 14.9064Z" fill="#4EA7FF"/>
<path d="M253.865 16.0064H254.695C254.772 16.0064 254.845 16.0369 254.9 16.0913C254.954 16.1457 254.985 16.2195 254.985 16.2964V38.0064C254.985 38.0833 254.954 38.1571 254.9 38.2114C254.845 38.2658 254.772 38.2964 254.695 38.2964H253.875C253.798 38.2964 253.724 38.2658 253.67 38.2114C253.615 38.1571 253.585 38.0833 253.585 38.0064V16.3264C253.577 16.2861 253.579 16.2447 253.59 16.2051C253.6 16.1656 253.62 16.129 253.647 16.0982C253.674 16.0673 253.708 16.0431 253.745 16.0272C253.783 16.0112 253.824 16.0041 253.865 16.0064Z" fill="#4EA7FF"/>
<path d="M256.176 16.0064H256.996C257.072 16.0064 257.146 16.0369 257.201 16.0913C257.255 16.1457 257.286 16.2194 257.286 16.2964V38.0064C257.286 38.0833 257.255 38.157 257.201 38.2114C257.146 38.2658 257.072 38.2964 256.996 38.2964H256.176C256.099 38.2964 256.025 38.2658 255.971 38.2114C255.916 38.157 255.886 38.0833 255.886 38.0064V16.3364C255.88 16.2951 255.883 16.253 255.895 16.2131C255.907 16.1731 255.927 16.1362 255.955 16.1049C255.982 16.0736 256.016 16.0486 256.055 16.0316C256.093 16.0146 256.134 16.006 256.176 16.0064Z" fill="#4EA7FF"/>
<path d="M258.465 16.0064H259.285C259.362 16.0064 259.435 16.0369 259.49 16.0913C259.544 16.1457 259.575 16.2194 259.575 16.2964V38.0064C259.575 38.0833 259.544 38.157 259.49 38.2114C259.435 38.2658 259.362 38.2964 259.285 38.2964H258.465C258.388 38.2964 258.314 38.2658 258.26 38.2114C258.205 38.157 258.175 38.0833 258.175 38.0064V16.3364C258.169 16.2951 258.172 16.253 258.184 16.2131C258.196 16.1731 258.217 16.1362 258.244 16.1049C258.272 16.0736 258.306 16.0486 258.344 16.0316C258.382 16.0146 258.423 16.006 258.465 16.0064Z" fill="#4EA7FF"/>
<path d="M260.514 40.3563L260.394 40.1063C260.379 40.0765 260.357 40.0514 260.328 40.0337C260.3 40.016 260.268 40.0066 260.234 40.0063H252.934C252.903 40.0084 252.872 40.0187 252.846 40.0362C252.82 40.0538 252.798 40.078 252.784 40.1063L252.664 40.3563C252.65 40.3815 252.642 40.4102 252.643 40.4393C252.643 40.4684 252.651 40.4969 252.667 40.5216C252.682 40.5463 252.704 40.5663 252.73 40.5795C252.756 40.5926 252.785 40.5985 252.814 40.5963H260.354C260.383 40.5972 260.412 40.5907 260.437 40.5775C260.463 40.5643 260.485 40.5447 260.501 40.5207C260.517 40.4967 260.526 40.469 260.529 40.4403C260.531 40.4115 260.526 40.3826 260.514 40.3563Z" fill="#4EA7FF"/>
<path d="M260.086 39.4564L259.816 38.8964C259.805 38.8657 259.785 38.8394 259.758 38.8213C259.731 38.8033 259.699 38.7945 259.666 38.7964H253.466C253.435 38.7984 253.404 38.8087 253.378 38.8262C253.351 38.8438 253.33 38.868 253.316 38.8964L253.056 39.4564C253.045 39.4819 253.04 39.5099 253.041 39.5378C253.043 39.5658 253.052 39.5928 253.067 39.6166C253.082 39.6403 253.102 39.66 253.126 39.6739C253.151 39.6879 253.178 39.6956 253.206 39.6964H259.886C259.918 39.7059 259.952 39.7058 259.984 39.6962C260.016 39.6865 260.044 39.6678 260.065 39.6423C260.086 39.6167 260.1 39.5855 260.104 39.5525C260.107 39.5194 260.101 39.486 260.086 39.4564Z" fill="#4EA7FF"/>
<path d="M271.705 14.0064L271.585 14.2664C271.573 14.2962 271.552 14.3217 271.525 14.3396C271.499 14.3574 271.467 14.3668 271.435 14.3664H264.135C264.102 14.3683 264.07 14.3595 264.043 14.3415C264.016 14.3234 263.996 14.2971 263.985 14.2664L263.855 14.0064C263.843 13.9801 263.838 13.9512 263.84 13.9225C263.843 13.8937 263.852 13.866 263.868 13.842C263.884 13.818 263.906 13.7985 263.932 13.7853C263.958 13.772 263.986 13.7656 264.015 13.7664H271.555C271.584 13.7643 271.613 13.7701 271.639 13.7833C271.665 13.7965 271.687 13.8165 271.702 13.8412C271.718 13.8659 271.726 13.8943 271.727 13.9234C271.727 13.9526 271.72 13.9812 271.705 14.0064Z" fill="#4EA7FF"/>
<path d="M271.275 14.9063L271.015 15.4663C271.001 15.4943 270.98 15.5177 270.953 15.5336C270.926 15.5496 270.896 15.5575 270.865 15.5563H264.705C264.674 15.5575 264.643 15.5496 264.616 15.5336C264.59 15.5177 264.568 15.4943 264.555 15.4663L264.285 14.9063C264.273 14.88 264.268 14.8512 264.27 14.8224C264.272 14.7936 264.282 14.766 264.298 14.7419C264.314 14.7179 264.336 14.6984 264.362 14.6852C264.387 14.6719 264.416 14.6655 264.445 14.6663H271.125C271.154 14.6642 271.183 14.67 271.209 14.6832C271.235 14.6964 271.257 14.7164 271.272 14.7411C271.287 14.7658 271.296 14.7942 271.296 14.8233C271.297 14.8525 271.289 14.8811 271.275 14.9063Z" fill="#4EA7FF"/>
<path d="M265.054 16.0064H265.894C265.97 16.009 266.041 16.0407 266.093 16.0948C266.145 16.1489 266.174 16.2212 266.174 16.2964V38.0064C266.174 38.0816 266.145 38.1539 266.093 38.208C266.041 38.2621 265.97 38.2938 265.894 38.2964H265.064C264.987 38.2964 264.914 38.2658 264.859 38.2114C264.805 38.157 264.774 38.0833 264.774 38.0064V16.3264C264.769 16.2864 264.772 16.2456 264.783 16.2069C264.794 16.1682 264.814 16.1324 264.841 16.102C264.867 16.0716 264.9 16.0473 264.937 16.0308C264.974 16.0143 265.014 16.0059 265.054 16.0064Z" fill="#4EA7FF"/>
<path d="M267.365 16.0063H268.195C268.272 16.0063 268.345 16.0369 268.4 16.0913C268.454 16.1457 268.485 16.2194 268.485 16.2963V38.0063C268.485 38.0833 268.454 38.157 268.4 38.2114C268.345 38.2658 268.272 38.2963 268.195 38.2963H267.365C267.29 38.2938 267.218 38.2621 267.166 38.208C267.114 38.1538 267.085 38.0816 267.085 38.0063V16.3363C267.079 16.2959 267.082 16.2547 267.094 16.2154C267.105 16.1762 267.124 16.1398 267.151 16.1086C267.177 16.0775 267.21 16.0523 267.247 16.0346C267.284 16.017 267.324 16.0074 267.365 16.0063Z" fill="#4EA7FF"/>
<path d="M269.675 16.0064H270.465C270.542 16.0064 270.615 16.037 270.67 16.0913C270.724 16.1457 270.755 16.2195 270.755 16.2964V38.0064C270.755 38.0833 270.724 38.1571 270.67 38.2115C270.615 38.2659 270.542 38.2964 270.465 38.2964H269.645C269.568 38.2964 269.494 38.2659 269.44 38.2115C269.385 38.1571 269.355 38.0833 269.355 38.0064V16.3364C269.348 16.2925 269.352 16.2476 269.366 16.2054C269.379 16.1631 269.402 16.1245 269.433 16.0926C269.464 16.0607 269.502 16.0364 269.544 16.0214C269.586 16.0065 269.63 16.0013 269.675 16.0064Z" fill="#4EA7FF"/>
<path d="M271.704 40.3563L271.584 40.1063C271.574 40.0808 271.558 40.0582 271.537 40.0407C271.516 40.0232 271.491 40.0114 271.464 40.0063H264.164C264.132 40.0045 264.1 40.0133 264.073 40.0313C264.046 40.0493 264.025 40.0757 264.014 40.1063L263.884 40.3563C263.872 40.3826 263.867 40.4115 263.87 40.4403C263.872 40.469 263.882 40.4967 263.898 40.5207C263.914 40.5447 263.936 40.5643 263.961 40.5775C263.987 40.5907 264.015 40.5972 264.044 40.5963H271.584C271.611 40.5933 271.636 40.5838 271.658 40.5685C271.68 40.5532 271.697 40.5328 271.709 40.5089C271.721 40.4851 271.727 40.4586 271.726 40.432C271.725 40.4053 271.718 40.3793 271.704 40.3563Z" fill="#4EA7FF"/>
<path d="M271.275 39.4564L271.015 38.8964C271.001 38.868 270.979 38.8438 270.953 38.8263C270.927 38.8087 270.896 38.7984 270.865 38.7964H264.705C264.672 38.7961 264.641 38.8054 264.614 38.8233C264.587 38.8411 264.567 38.8666 264.555 38.8964L264.285 39.4564C264.273 39.4827 264.268 39.5116 264.27 39.5403C264.272 39.5691 264.282 39.5968 264.298 39.6208C264.314 39.6448 264.336 39.6643 264.362 39.6775C264.387 39.6908 264.416 39.6973 264.445 39.6964H271.125C271.154 39.6985 271.183 39.6927 271.209 39.6795C271.235 39.6663 271.257 39.6463 271.272 39.6216C271.287 39.5969 271.296 39.5685 271.296 39.5394C271.297 39.5103 271.289 39.4816 271.275 39.4564Z" fill="#4EA7FF"/>
<path d="M282.916 14.0064L282.796 14.2664C282.782 14.2947 282.761 14.3189 282.734 14.3365C282.708 14.354 282.677 14.3643 282.646 14.3664H275.346C275.313 14.3661 275.28 14.3567 275.252 14.339C275.223 14.3213 275.201 14.2962 275.186 14.2664L275.066 14.0064C275.054 13.9808 275.049 13.9529 275.051 13.9249C275.053 13.897 275.062 13.8699 275.077 13.8462C275.091 13.8224 275.112 13.8027 275.136 13.7888C275.161 13.7749 275.188 13.7672 275.216 13.7664H282.766C282.794 13.7672 282.821 13.7749 282.846 13.7888C282.87 13.8027 282.89 13.8224 282.905 13.8462C282.92 13.8699 282.929 13.897 282.931 13.9249C282.932 13.9529 282.927 13.9808 282.916 14.0064Z" fill="#4EA7FF"/>
<path d="M282.464 14.9063L282.204 15.4663C282.191 15.4943 282.169 15.5177 282.143 15.5337C282.116 15.5496 282.085 15.5575 282.054 15.5563H275.914C275.882 15.5582 275.85 15.5507 275.821 15.5348C275.793 15.5188 275.77 15.4951 275.754 15.4663L275.464 14.9063C275.453 14.8808 275.448 14.8528 275.45 14.8249C275.451 14.797 275.46 14.7699 275.475 14.7462C275.49 14.7224 275.51 14.7027 275.535 14.6888C275.559 14.6749 275.586 14.6671 275.614 14.6663H282.304C282.333 14.6655 282.362 14.672 282.387 14.6852C282.413 14.6984 282.435 14.718 282.451 14.742C282.467 14.766 282.477 14.7937 282.479 14.8224C282.481 14.8512 282.476 14.88 282.464 14.9063Z" fill="#4EA7FF"/>
<path d="M276.265 16.0064H277.095C277.172 16.0064 277.246 16.0369 277.3 16.0913C277.355 16.1457 277.385 16.2195 277.385 16.2964V38.0064C277.385 38.0833 277.355 38.157 277.3 38.2114C277.246 38.2658 277.172 38.2964 277.095 38.2964H276.275C276.198 38.2964 276.125 38.2658 276.07 38.2114C276.016 38.157 275.985 38.0833 275.985 38.0064V16.3264C275.98 16.2864 275.982 16.2456 275.994 16.2069C276.005 16.1682 276.025 16.1324 276.052 16.102C276.078 16.0716 276.111 16.0473 276.148 16.0308C276.185 16.0143 276.225 16.0059 276.265 16.0064Z" fill="#4EA7FF"/>
<path d="M278.576 16.0064H279.396C279.473 16.0064 279.547 16.0369 279.601 16.0913C279.655 16.1457 279.686 16.2194 279.686 16.2964V38.0064C279.686 38.0833 279.655 38.157 279.601 38.2114C279.547 38.2658 279.473 38.2964 279.396 38.2964H278.576C278.499 38.2964 278.425 38.2658 278.371 38.2114C278.317 38.157 278.286 38.0833 278.286 38.0064V16.3364C278.28 16.2951 278.283 16.253 278.295 16.2131C278.307 16.1731 278.328 16.1362 278.355 16.1049C278.383 16.0736 278.417 16.0486 278.455 16.0316C278.493 16.0146 278.534 16.006 278.576 16.0064Z" fill="#4EA7FF"/>
<path d="M280.875 16.0064H281.705C281.78 16.009 281.851 16.0406 281.903 16.0948C281.956 16.1489 281.985 16.2212 281.985 16.2964V38.0064C281.985 38.0816 281.956 38.1539 281.903 38.208C281.851 38.2621 281.78 38.2938 281.705 38.2964H280.875C280.798 38.2964 280.724 38.2658 280.67 38.2114C280.615 38.157 280.585 38.0833 280.585 38.0064V16.3364C280.579 16.2951 280.582 16.253 280.594 16.2131C280.606 16.1731 280.627 16.1362 280.654 16.1049C280.682 16.0736 280.716 16.0486 280.754 16.0316C280.792 16.0146 280.833 16.006 280.875 16.0064Z" fill="#4EA7FF"/>
<path d="M282.916 40.3563L282.796 40.1063C282.782 40.078 282.761 40.0538 282.734 40.0362C282.708 40.0187 282.677 40.0084 282.646 40.0063H275.346C275.313 40.0066 275.28 40.016 275.252 40.0337C275.223 40.0514 275.201 40.0765 275.186 40.1063L275.066 40.3563C275.054 40.3819 275.049 40.4098 275.051 40.4378C275.053 40.4657 275.062 40.4928 275.077 40.5165C275.091 40.5403 275.112 40.56 275.136 40.5739C275.161 40.5878 275.188 40.5955 275.216 40.5963H282.766C282.795 40.5985 282.824 40.5926 282.85 40.5795C282.876 40.5663 282.898 40.5463 282.913 40.5216C282.929 40.4969 282.937 40.4684 282.938 40.4393C282.938 40.4102 282.931 40.3815 282.916 40.3563Z" fill="#4EA7FF"/>
<path d="M282.466 39.4564L282.206 38.8964C282.192 38.868 282.17 38.8438 282.144 38.8263C282.118 38.8087 282.087 38.7984 282.056 38.7964H275.916C275.882 38.7966 275.85 38.8061 275.821 38.8237C275.793 38.8414 275.77 38.8665 275.756 38.8964L275.496 39.4564C275.484 39.4819 275.479 39.5099 275.481 39.5378C275.483 39.5658 275.491 39.5928 275.506 39.6166C275.521 39.6403 275.542 39.66 275.566 39.6739C275.59 39.6879 275.618 39.6956 275.646 39.6964H282.336C282.362 39.6926 282.387 39.6828 282.409 39.6676C282.43 39.6524 282.448 39.6324 282.461 39.6091C282.474 39.5858 282.481 39.5598 282.481 39.5333C282.482 39.5068 282.477 39.4804 282.466 39.4564Z" fill="#4EA7FF"/>
<path fill-rule="evenodd" clip-rule="evenodd" d="M138.463 5C139.015 5 139.463 5.44772 139.463 6V43C139.463 43.5523 139.015 44 138.463 44C137.911 44 137.463 43.5523 137.463 43V6C137.463 5.44772 137.911 5 138.463 5Z" fill="#4EA7FF"/>
<path d="M170.799 42.2001C168.319 42.2001 166.399 41.9467 165.039 41.4401C163.705 40.9334 162.772 40.1467 162.239 39.0801C161.705 37.9867 161.399 36.6134 161.319 34.9601L160.479 12.7201H166.079L166.919 32.2801C166.972 33.5067 167.105 34.4267 167.319 35.0401C167.532 35.6534 167.932 36.0667 168.519 36.2801C169.132 36.4934 170.025 36.6001 171.199 36.6001C172.212 36.6001 172.932 36.8667 173.359 37.4001C173.812 37.9067 174.039 38.5467 174.039 39.3201C174.039 40.1467 173.759 40.8401 173.199 41.4001C172.639 41.9334 171.839 42.2001 170.799 42.2001Z" fill="#4EA7FF"/>
<path d="M170.853 42.2001L171.253 36.6001C172.266 36.6001 173.066 36.5067 173.653 36.3201C174.266 36.1334 174.746 35.7601 175.093 35.2001C175.466 34.6134 175.773 33.7601 176.013 32.6401C176.28 31.5201 176.546 30.0267 176.813 28.1601L182.053 29.0401C182 29.4401 181.92 29.9067 181.813 30.4401C181.733 30.9734 181.653 31.5201 181.573 32.0801C181.52 32.6134 181.493 33.1201 181.493 33.6001C181.493 34.2401 181.626 34.7867 181.893 35.2401C182.186 35.6667 182.693 36.0001 183.413 36.2401C184.16 36.4801 185.226 36.6001 186.613 36.6001C187.626 36.6001 188.346 36.8667 188.773 37.4001C189.2 37.9067 189.413 38.5467 189.413 39.3201C189.413 40.1467 189.133 40.8401 188.573 41.4001C188.04 41.9334 187.253 42.2001 186.213 42.2001C184.373 42.2001 182.88 42.0267 181.733 41.6801C180.586 41.3334 179.733 40.7467 179.173 39.9201C178.613 39.0934 178.253 37.9601 178.093 36.5201H180.013C179.533 37.8001 178.973 38.8267 178.333 39.6001C177.693 40.3467 176.973 40.9067 176.173 41.2801C175.373 41.6534 174.52 41.8934 173.613 42.0001C172.733 42.1334 171.813 42.2001 170.853 42.2001ZM179.013 24.0801C178.186 24.0801 177.48 23.8001 176.893 23.2401C176.333 22.6801 176.053 21.9867 176.053 21.1601C176.053 20.3334 176.333 19.6267 176.893 19.0401C177.48 18.4534 178.186 18.1601 179.013 18.1601C179.813 18.1601 180.493 18.4534 181.053 19.0401C181.64 19.6267 181.933 20.3334 181.933 21.1601C181.933 21.9867 181.64 22.6801 181.053 23.2401C180.493 23.8001 179.813 24.0801 179.013 24.0801Z" fill="#4EA7FF"/>
<path d="M186.204 42.2001L186.604 36.6001C187.564 36.6001 188.391 36.5067 189.084 36.3201C189.778 36.1334 190.364 35.7601 190.844 35.2001C191.324 34.6134 191.724 33.7601 192.044 32.6401C192.391 31.5201 192.698 30.0267 192.964 28.1601L198.204 29.0401C198.151 29.4401 198.071 29.9067 197.964 30.4401C197.884 30.9734 197.804 31.5201 197.724 32.0801C197.671 32.6134 197.644 33.1201 197.644 33.6001C197.644 34.0801 197.738 34.5067 197.924 34.8801C198.111 35.2534 198.404 35.5734 198.804 35.8401C199.231 36.0801 199.778 36.2667 200.444 36.4001C201.138 36.5334 201.978 36.6001 202.964 36.6001C203.978 36.6001 204.698 36.8667 205.124 37.4001C205.551 37.9067 205.764 38.5467 205.764 39.3201C205.764 40.1467 205.484 40.8401 204.924 41.4001C204.391 41.9334 203.604 42.2001 202.564 42.2001C201.364 42.2001 200.271 42.1067 199.284 41.9201C198.324 41.7334 197.484 41.4267 196.764 41.0001C196.071 40.5467 195.498 39.9601 195.044 39.2401C194.618 38.4934 194.351 37.5867 194.244 36.5201H196.164C195.684 37.8001 195.071 38.8267 194.324 39.6001C193.604 40.3467 192.791 40.9067 191.884 41.2801C190.978 41.6534 190.031 41.8934 189.044 42.0001C188.084 42.1334 187.138 42.2001 186.204 42.2001ZM197.364 51.4801C196.591 51.4801 195.924 51.2001 195.364 50.6401C194.831 50.1067 194.564 49.4667 194.564 48.7201C194.564 47.9467 194.831 47.2801 195.364 46.7201C195.924 46.1601 196.591 45.8801 197.364 45.8801C198.111 45.8801 198.751 46.1601 199.284 46.7201C199.818 47.2801 200.084 47.9467 200.084 48.7201C200.084 49.4667 199.818 50.1067 199.284 50.6401C198.751 51.2001 198.111 51.4801 197.364 51.4801ZM190.444 51.4801C189.671 51.4801 189.004 51.2001 188.444 50.6401C187.911 50.1067 187.644 49.4667 187.644 48.7201C187.644 47.9467 187.911 47.2801 188.444 46.7201C189.004 46.1601 189.671 45.8801 190.444 45.8801C191.191 45.8801 191.831 46.1601 192.364 46.7201C192.898 47.2801 193.164 47.9467 193.164 48.7201C193.164 49.4667 192.898 50.1067 192.364 50.6401C191.831 51.2001 191.191 51.4801 190.444 51.4801Z" fill="#4EA7FF"/>
<path d="M202.572 42.2001L202.972 36.6001C204.572 36.6001 205.798 36.5201 206.652 36.3601C207.505 36.2001 208.092 35.9067 208.412 35.4801C208.758 35.0267 208.932 34.3867 208.932 33.5601C208.932 32.8134 208.825 31.9201 208.612 30.8801C208.425 29.8401 208.172 28.7601 207.852 27.6401C207.558 26.5201 207.238 25.4934 206.892 24.5601L212.412 23.0401C212.758 23.9467 213.092 25.0001 213.412 26.2001C213.732 27.4001 213.998 28.6401 214.212 29.9201C214.425 31.1734 214.532 32.3867 214.532 33.5601C214.532 35.3734 214.238 36.8534 213.652 38.0001C213.065 39.1201 212.238 39.9867 211.172 40.6001C210.132 41.2134 208.878 41.6401 207.412 41.8801C205.945 42.0934 204.332 42.2001 202.572 42.2001ZM210.212 14.4401C209.545 14.4401 208.958 14.1867 208.452 13.6801C207.972 13.1734 207.732 12.5734 207.732 11.8801C207.732 11.1867 207.972 10.6001 208.452 10.1201C208.958 9.64006 209.545 9.40006 210.212 9.40006C210.905 9.40006 211.492 9.64006 211.972 10.1201C212.452 10.6001 212.692 11.1867 212.692 11.8801C212.692 12.5734 212.452 13.1734 211.972 13.6801C211.492 14.1867 210.905 14.4401 210.212 14.4401ZM207.012 19.7201C206.345 19.7201 205.758 19.4667 205.252 18.9601C204.772 18.4534 204.532 17.8534 204.532 17.1601C204.532 16.4667 204.772 15.8801 205.252 15.4001C205.758 14.9201 206.345 14.6801 207.012 14.6801C207.705 14.6801 208.292 14.9201 208.772 15.4001C209.252 15.8801 209.492 16.4667 209.492 17.1601C209.492 17.8534 209.252 18.4534 208.772 18.9601C208.292 19.4667 207.705 19.7201 207.012 19.7201ZM213.212 19.7201C212.545 19.7201 211.958 19.4667 211.452 18.9601C210.972 18.4534 210.732 17.8534 210.732 17.1601C210.732 16.4667 210.972 15.8801 211.452 15.4001C211.958 14.9201 212.545 14.6801 213.212 14.6801C213.905 14.6801 214.492 14.9201 214.972 15.4001C215.452 15.8801 215.692 16.4667 215.692 17.1601C215.692 17.8534 215.452 18.4534 214.972 18.9601C214.492 19.4667 213.905 19.7201 213.212 19.7201Z" fill="#4EA7FF"/>
<path d="M220.067 42.0001L219.307 15.5201H224.907L225.667 42.0001H220.067ZM217.867 12.9601L217.187 10.1601C218.12 10.0001 218.813 9.86673 219.267 9.76006C219.747 9.65339 220.253 9.53339 220.787 9.40006L220.387 10.4001C219.693 10.1601 219.027 9.69339 218.387 9.00006C217.773 8.28006 217.467 7.46673 217.467 6.56006C217.467 5.60006 217.68 4.82673 218.107 4.24006C218.533 3.65339 219.08 3.22673 219.747 2.96006C220.413 2.69339 221.107 2.56006 221.827 2.56006C222.227 2.56006 222.6 2.58673 222.947 2.64006C223.32 2.69339 223.653 2.77339 223.947 2.88006L223.627 5.76006C223.36 5.70673 223.093 5.65339 222.827 5.60006C222.56 5.54673 222.267 5.52006 221.947 5.52006C221.6 5.52006 221.28 5.64006 220.987 5.88006C220.72 6.09339 220.587 6.36006 220.587 6.68006C220.587 7.13339 220.747 7.53339 221.067 7.88006C221.387 8.22673 221.76 8.50673 222.187 8.72006C222.64 8.90673 223.013 9.01339 223.307 9.04006L221.107 9.28006C221.827 9.09339 222.507 8.90673 223.147 8.72006C223.787 8.50673 224.387 8.29339 224.947 8.08006L225.747 10.7601C225.08 11.0001 224.293 11.2667 223.387 11.5601C222.507 11.8267 221.587 12.0801 220.627 12.3201C219.693 12.5601 218.773 12.7734 217.867 12.9601Z" fill="#4EA7FF"/>
<path d="M15.72 42.84L16.76 37.24C19.3467 37.24 21.6 37.1733 23.52 37.04C25.44 36.88 27.0267 36.6533 28.28 36.36C29.56 36.04 30.5067 35.6266 31.12 35.12C31.76 34.6133 32.08 34 32.08 33.28C32.08 32.32 31.92 31.1733 31.6 29.84C31.28 28.48 30.8667 27.1066 30.36 25.72L35.6 24.2C35.9467 25.1066 36.28 26.1066 36.6 27.2C36.92 28.2666 37.1733 29.3466 37.36 30.44C37.5733 31.5066 37.68 32.5066 37.68 33.44C37.68 35.0933 37.32 36.52 36.6 37.72C35.88 38.8933 34.68 39.8666 33 40.64C31.3467 41.3866 29.1067 41.9333 26.28 42.28C23.4533 42.6533 19.9333 42.84 15.72 42.84ZM15.68 42.84C12.8 42.84 10.36 42.6133 8.36 42.16C6.38667 41.7333 4.77333 41.12 3.52 40.32C2.29333 39.4933 1.4 38.5333 0.84 37.44C0.28 36.3466 0 35.1466 0 33.84C0 32.9866 0.0666666 32.1333 0.2 31.28C0.36 30.4 0.546667 29.5466 0.76 28.72C1 27.8933 1.21333 27.1466 1.4 26.48L6.4 27.64C6.29333 28.12 6.17333 28.64 6.04 29.2C5.90667 29.76 5.8 30.3066 5.72 30.84C5.64 31.3466 5.6 31.8133 5.6 32.24C5.6 33.2266 5.94667 34.1066 6.64 34.88C7.36 35.6266 8.53333 36.2133 10.16 36.64C11.7867 37.04 13.9733 37.24 16.72 37.24L17.52 41.56L15.68 42.84ZM18.76 52.2C17.9867 52.2 17.32 51.9333 16.76 51.4C16.2267 50.8666 15.96 50.2133 15.96 49.44C15.96 48.6666 16.2267 47.9866 16.76 47.4C17.32 46.84 17.9867 46.56 18.76 46.56C19.5333 46.56 20.1867 46.84 20.72 47.4C21.28 47.9866 21.56 48.6666 21.56 49.44C21.56 50.2133 21.28 50.8666 20.72 51.4C20.1867 51.9333 19.5333 52.2 18.76 52.2Z" fill="#4EA7FF"/>
<path d="M66.8966 42.2C65.0299 42.2 63.4832 42.0666 62.2566 41.8C61.0566 41.5066 60.1099 41.0666 59.4166 40.48C58.7232 39.8666 58.2299 39.1066 57.9366 38.2C57.6432 37.2933 57.4699 36.2133 57.4166 34.96L56.5766 12.72H62.1766L63.0166 32.28C63.0699 33.5066 63.2032 34.4266 63.4166 35.04C63.6299 35.6533 64.0299 36.0666 64.6166 36.28C65.2299 36.4933 66.1232 36.6 67.2966 36.6C68.3099 36.6 69.0299 36.8666 69.4566 37.4C69.9099 37.9066 70.1366 38.5466 70.1366 39.32C70.1366 40.1466 69.8566 40.84 69.2966 41.4C68.7366 41.9333 67.9366 42.2 66.8966 42.2ZM45.3766 42.2C44.6566 42.2 43.9232 42.1333 43.1766 42C42.4566 41.8933 41.9499 41.8133 41.6566 41.76L42.4166 35.96C44.2566 36.2 46.0432 36.2533 47.7766 36.12C49.5366 35.96 51.1099 35.5333 52.4966 34.84C53.9099 34.12 55.0299 33.08 55.8566 31.72C56.6832 30.3333 57.0966 28.5466 57.0966 26.36L59.2566 32.64C58.9366 34.4533 58.3899 35.96 57.6166 37.16C56.8699 38.3333 55.9766 39.2666 54.9366 39.96C53.9232 40.6266 52.8432 41.12 51.6966 41.44C50.5499 41.76 49.4299 41.96 48.3366 42.04C47.2432 42.1466 46.2566 42.2 45.3766 42.2ZM54.0566 36.72C53.6566 35.9466 53.0832 35.04 52.3366 34C51.5899 32.9333 50.6699 31.76 49.5766 30.48C48.5099 29.1733 47.2832 27.8 45.8966 26.36C44.5099 24.8933 42.9766 23.3866 41.2966 21.84L44.7766 18.04C47.2566 20.3866 49.2699 22.36 50.8166 23.96C52.3632 25.56 53.5899 26.9066 54.4966 28C55.4299 29.0666 56.1366 29.9866 56.6166 30.76C57.1232 31.5333 57.5499 32.28 57.8966 33L54.0566 36.72Z" fill="#4EA7FF"/>
<path d="M97.3631 42.2C96.0031 42.2 94.6965 42.08 93.4431 41.84C92.1898 41.5733 91.0565 41.2266 90.0431 40.8C89.0565 40.3733 88.2431 39.8933 87.6031 39.36L91.2031 35.48C92.1631 35.88 93.1498 36.1733 94.1631 36.36C95.1765 36.52 96.3765 36.6 97.7631 36.6C98.7765 36.6 99.4965 36.8666 99.9231 37.4C100.376 37.9066 100.603 38.5466 100.603 39.32C100.603 40.1466 100.323 40.84 99.7631 41.4C99.2031 41.9333 98.4031 42.2 97.3631 42.2ZM66.9231 42.2L67.3231 36.6H76.2831C78.7898 36.6 80.8698 36.5066 82.5231 36.32C84.2031 36.1333 85.5365 35.8666 86.5231 35.52C87.5098 35.1466 88.2031 34.72 88.6031 34.24C89.0298 33.76 89.2431 33.24 89.2431 32.68C89.2431 32.1733 89.1231 31.6933 88.8831 31.24C88.6431 30.76 88.2831 30.3733 87.8031 30.08C87.3231 29.7866 86.6965 29.64 85.9231 29.64C84.9365 29.64 83.9498 29.88 82.9631 30.36C81.9765 30.8133 81.0165 31.44 80.0831 32.24C79.1498 33.0133 78.2565 33.88 77.4031 34.84C76.5765 35.8 75.8165 36.7733 75.1231 37.76L69.0831 36.92C70.2031 35.1866 71.4165 33.5466 72.7231 32C74.0565 30.4266 75.4565 29.0533 76.9231 27.88C78.4165 26.68 79.9498 25.7466 81.5231 25.08C83.1231 24.3866 84.7498 24.04 86.4031 24.04C88.1631 24.04 89.6698 24.4 90.9231 25.12C92.1765 25.84 93.1365 26.8266 93.8031 28.08C94.4965 29.3333 94.8431 30.7866 94.8431 32.44C94.8431 34.1733 94.3498 35.7333 93.3631 37.12C92.4031 38.5066 90.7631 39.6533 88.4431 40.56C87.4565 40.9333 86.3898 41.24 85.2431 41.48C84.0965 41.72 82.7498 41.8933 81.2031 42C79.6565 42.1333 77.8031 42.2 75.6431 42.2H66.9231ZM71.0831 38.12L70.2431 12.72H75.8431L76.5631 31.92L71.0831 38.12Z" fill="#4EA7FF"/>
<path d="M97.3919 42.2L97.7919 36.6C99.0185 36.6 99.8985 36.48 100.432 36.24C100.965 35.9733 101.285 35.4933 101.392 34.8C101.499 34.08 101.525 33.04 101.472 31.68L100.752 12.72H106.392L107.192 32.08C107.245 33.6266 107.179 35.0266 106.992 36.28C106.832 37.5066 106.419 38.56 105.752 39.44C105.112 40.32 104.112 41 102.752 41.48C101.419 41.96 99.6319 42.2 97.3919 42.2Z" fill="#4EA7FF"/>
<path d="M112.467 42L111.627 12.72H117.227L118.067 42H112.467Z" fill="#4EA7FF"/>
</svg>
