<svg width="28" height="28" viewBox="0 0 28 28" fill="none" xmlns="http://www.w3.org/2000/svg">
<path d="M14.1196 24.8668C8.19554 24.8668 3.37298 20.0442 3.37298 14.1201C3.37298 8.19603 8.19554 3.37346 14.1196 3.37346C20.0437 3.37346 24.8663 8.19603 24.8663 14.1201C24.8663 20.0442 20.0437 24.8668 14.1196 24.8668ZM14.1196 27.5535C21.5348 27.5535 27.553 21.5353 27.553 14.1201C27.553 6.70493 21.5348 0.686798 14.1196 0.686798C6.70444 0.686798 0.68631 6.70493 0.68631 14.1201C0.68631 21.5353 6.70444 27.5535 14.1196 27.5535ZM14.1196 10.0901L19.493 15.4635L8.74631 15.4635L14.1196 10.0901Z" fill="#E8F3FF"/>
</svg>
